<svg width="1462" height="1193" viewBox="0 0 1462 1193" fill="none" xmlns="http://www.w3.org/2000/svg">
<path d="M125.188 590.934L111.011 598.599L110.974 598.62L110.949 598.584L82.0888 558.527L81.9849 558.386L82.1498 558.296L96.9986 550.252C99.3442 548.824 101.046 546.648 101.773 544.25C102.582 541.845 102.016 539.315 102.008 536.767C101.792 534.222 102.108 531.665 101.107 529.345C100.186 527.015 98.3344 524.983 95.9293 523.702L80.4647 516.609L79.9775 516.384L80.2374 515.958L105.679 474.175L106.111 473.467L106.942 473.845L122.412 480.887C124.868 481.832 127.687 482.03 130.264 481.43C131.548 481.118 132.764 480.622 133.852 479.962L137.616 477.909L141.385 475.862C142.534 475.295 143.569 474.566 144.431 473.701C146.153 471.963 147.143 469.709 147.21 467.431L146.562 452.319L146.509 451.094L147.935 451.052L202.418 449.435L204.005 449.387L204.059 450.77L204.657 465.873C204.898 468.07 206.052 470.174 207.856 471.735C208.756 472.516 209.816 473.152 210.96 473.635L214.95 475.361L218.829 477.267C219.927 477.819 221.125 478.224 222.37 478.431C224.859 478.855 227.499 478.503 229.716 477.453L244.582 469.547L246.022 468.782L246.902 470.018L275.514 510.213L276.322 511.348L275.017 512.047L260.18 519.998C258.064 521.262 256.513 523.204 255.834 525.377C255.481 526.46 255.352 527.601 255.413 528.729L255.539 532.553L255.65 536.374C255.657 537.514 255.85 538.658 256.276 539.735C257.093 541.899 258.77 543.799 260.985 545.018L276.285 552.272L277.323 552.765L276.766 553.65L250.662 595.124L250.278 595.736L249.577 595.406L234.212 588.181C231.703 587.173 228.785 586.966 226.086 587.575C223.363 588.121 221.107 589.739 218.51 591.003C216.025 592.416 213.319 593.395 211.493 595.265C209.617 597.078 208.48 599.464 208.404 601.907L208.798 617.067L208.805 617.34L208.488 617.349L153.996 618.667L153.85 618.67L153.846 618.544L153.467 606.991C153.357 605.073 153.533 603.114 152.847 601.28C152.212 599.449 150.996 597.774 149.391 596.456C147.814 595.079 145.736 594.316 143.76 593.437C141.749 592.612 139.88 591.549 137.926 590.637C134 588.839 128.987 588.872 125.188 590.934ZM125.188 590.934C128.975 588.854 134.001 588.794 137.959 590.58C139.927 591.489 141.792 592.537 143.809 593.353C145.778 594.217 147.887 594.983 149.49 596.366C151.121 597.69 152.362 599.38 153.019 601.235C153.727 603.102 153.56 605.076 153.682 606.985L154.133 618.538L153.985 618.418L208.467 616.797L208.16 617.082L207.525 601.889C207.565 599.263 208.749 596.672 210.74 594.695C212.724 592.633 215.582 591.561 217.922 590.177L221.621 588.163C222.891 587.443 224.291 586.873 225.77 586.537C228.716 585.831 231.957 586.014 234.774 587.107L250.335 594.184L249.251 594.466L274.695 552.687L275.175 554.064L259.611 546.921C256.858 545.456 254.75 543.127 253.711 540.492C253.172 539.177 252.909 537.791 252.878 536.401L252.71 532.634L252.526 528.87C252.425 527.478 252.567 526.064 253.004 524.71C253.831 521.994 255.78 519.509 258.472 517.882L273.395 509.784L272.899 511.618L244.039 471.558L246.358 472.026L231.364 480.091C228.439 481.472 224.955 481.904 221.707 481.337C220.08 481.058 218.518 480.523 217.095 479.797L213.355 477.933L209.504 476.246C208.026 475.619 206.655 474.782 205.496 473.764C203.168 471.732 201.686 468.989 201.394 466.135L200.878 450.854L202.517 452.19L148.023 453.505L149.395 452.241L149.801 467.506C149.672 470.292 148.423 473.02 146.293 475.109C145.227 476.147 143.95 477.024 142.543 477.69L138.854 479.641L135.162 481.586C133.843 482.366 132.369 482.945 130.828 483.294C127.74 483.978 124.411 483.699 121.54 482.546L106.062 475.268L107.322 474.938L81.216 516.411L80.9887 515.76L96.3895 523.066C98.9478 524.47 100.879 526.664 101.813 529.134C102.833 531.635 102.453 534.276 102.633 536.749C102.598 539.231 103.126 541.848 102.282 544.37C101.508 546.861 99.7246 549.118 97.2758 550.595L82.3529 558.578L82.4153 558.35L111.025 598.545L110.963 598.53L125.188 590.934Z" fill="#E7E8E5"/>
<path d="M136.417 520.998C132.338 530.5 132.85 541.347 137.775 550.484C142.546 559.74 152.016 566.715 162.746 570.113C173.544 573.571 185.733 572.826 195.961 568.729C206.357 564.734 214.319 556.871 218.375 547.806C222.441 538.736 222.164 528.24 217.53 519.29C213.203 510.184 204.302 502.953 193.686 499.219C183.055 495.44 170.627 495.678 159.956 499.651C149.205 503.622 140.777 511.624 136.417 520.998ZM136.417 520.998C140.619 511.576 148.945 503.406 159.751 499.255C170.391 494.999 183.069 494.228 194.297 497.824C205.443 501.338 215.288 508.629 220.228 518.239C225.326 527.73 225.852 538.991 221.603 548.878C217.111 558.608 208.347 566.943 197.182 571.07C186.105 575.218 173.181 575.449 162.128 571.524C156.643 569.534 151.517 566.778 147.272 563.198C142.999 559.647 139.639 555.334 137.315 550.661C132.489 541.362 132.18 530.446 136.417 520.998Z" fill="#E7E8E5"/>
<path d="M1362.36 570.816C1362.36 585.782 1348.36 597.901 1331.09 597.901C1313.81 597.901 1299.79 585.782 1299.79 570.816C1299.79 555.851 1313.81 543.705 1331.09 543.705C1348.36 543.705 1362.36 555.851 1362.36 570.816ZM1398.87 556.01L1379.78 527.359L1369.66 532.425C1366.68 533.914 1363.02 533.773 1360.14 532.146C1358.55 531.246 1356.9 530.42 1355.2 529.67C1352.14 528.325 1350.18 525.651 1350.18 522.68V512.553H1311.97V522.68C1311.97 525.651 1310 528.325 1306.95 529.67C1305.24 530.42 1303.59 531.246 1302 532.146C1299.12 533.773 1295.46 533.914 1292.48 532.425L1282.36 527.359L1263.27 556.01L1273.44 561.083C1276.42 562.569 1278.06 565.405 1277.89 568.379C1277.84 569.187 1277.82 570 1277.82 570.816C1277.82 571.63 1277.84 572.443 1277.89 573.251C1278.06 576.213 1276.43 579.034 1273.47 580.517L1263.27 585.622L1282.36 614.274L1292.51 609.202C1295.49 607.713 1299.15 607.86 1302.03 609.493C1303.61 610.39 1305.26 611.213 1306.95 611.96C1310.01 613.311 1311.97 615.982 1311.97 618.95V629.08H1350.18V618.95C1350.18 615.982 1352.13 613.311 1355.19 611.96C1356.88 611.213 1358.53 610.39 1360.11 609.493C1362.99 607.863 1366.65 607.713 1369.63 609.202L1379.78 614.274L1398.87 585.622L1388.72 580.547C1385.74 579.061 1384.11 576.237 1384.28 573.269C1384.33 572.458 1384.36 571.639 1384.36 570.816C1384.36 570 1384.33 569.187 1384.28 568.379C1384.11 565.405 1385.75 562.569 1388.73 561.08L1398.87 556.01Z" fill="#E7E8E5"/>
<path d="M366.512 316.623C366.512 331.588 352.52 343.708 335.242 343.708C317.965 343.708 303.942 331.588 303.942 316.623C303.942 301.658 317.965 289.511 335.242 289.511C352.52 289.511 366.512 301.658 366.512 316.623ZM403.028 301.817L383.938 273.165L373.82 278.232C370.84 279.721 367.177 279.579 364.298 277.953C362.707 277.052 361.054 276.227 359.35 275.477C356.293 274.132 354.329 271.455 354.329 268.486V258.359H316.126V268.486C316.126 271.455 314.16 274.132 311.103 275.477C309.399 276.227 307.75 277.052 306.157 277.953C303.278 279.579 299.613 279.721 296.639 278.232L286.514 273.165L267.426 301.817L277.596 306.889C280.578 308.375 282.219 311.212 282.043 314.189C281.996 314.996 281.972 315.81 281.972 316.623C281.972 317.439 281.996 318.25 282.043 319.057C282.217 322.02 280.588 324.841 277.622 326.324L267.426 331.429L286.514 360.081L296.666 355.011C299.645 353.523 303.308 353.67 306.188 355.299C307.773 356.197 309.416 357.022 311.111 357.77C314.163 359.117 316.126 361.789 316.126 364.757V374.887H354.329V364.757C354.329 361.789 356.29 359.117 359.343 357.77C361.041 357.022 362.683 356.197 364.267 355.299C367.146 353.67 370.809 353.523 373.789 355.011L383.938 360.081L403.028 331.429L392.871 326.354C389.902 324.868 388.266 322.044 388.443 319.075C388.488 318.265 388.512 317.445 388.512 316.623C388.512 315.81 388.488 314.996 388.443 314.189C388.266 311.212 389.905 308.375 392.885 306.886L403.028 301.817Z" fill="#E7E8E5"/>
<path d="M1219.08 78.3242H885.178C885.178 78.3242 918.287 -0.000946045 969.235 -0.000946045C1020.19 -0.000946045 1036.15 54.0638 1036.15 54.0638C1036.15 54.0638 1070.53 24.6888 1098.76 24.6888C1127 24.6888 1151.55 63.5032 1151.55 63.5032C1151.55 63.5032 1191.46 42.6313 1219.08 78.3242Z" fill="#E7E8E5"/>
<path d="M682.766 547.922H348.862C348.862 547.922 381.972 469.6 432.923 469.6C483.871 469.6 499.831 523.661 499.831 523.661C499.831 523.661 534.209 494.289 562.45 494.289C590.684 494.289 615.238 533.104 615.238 533.104C615.238 533.104 655.142 512.232 682.766 547.922Z" fill="#E7E8E5"/>
<path d="M1423.91 338.5H1267.87C1267.87 338.5 1302.74 294.739 1330.21 294.739C1357.68 294.739 1365.79 323.913 1365.79 323.913C1365.79 323.913 1382.13 312.439 1398.71 312.439C1400.19 312.439 1401.67 312.532 1403.14 312.73C1421.1 315.161 1423.91 338.5 1423.91 338.5Z" fill="#F3F2F1"/>
<path d="M990.882 419.826H834.84C834.84 419.826 869.706 376.068 897.178 376.068C924.649 376.068 932.768 405.239 932.768 405.239C932.768 405.239 949.106 393.768 965.676 393.768C967.159 393.768 968.639 393.858 970.112 394.059C988.078 396.49 990.882 419.826 990.882 419.826Z" fill="#F3F2F1"/>
<path d="M303.941 418.969H0C0 418.969 41.6221 338.479 86.1477 333.449C130.676 328.419 151.97 393.258 151.97 393.258C151.97 393.258 180.686 370.34 203.272 370.34C225.859 370.34 243.282 400.525 243.282 400.525C243.282 400.525 288.452 379.842 303.941 418.969Z" fill="#E7E8E5"/>
<path d="M515.816 203.998H310.497C310.497 203.998 345.766 145.683 384.026 144.834C384.383 144.825 384.74 144.822 385.097 144.822C422.666 144.822 442.4 188.967 442.4 188.967C442.4 188.967 463.444 174.338 483.427 174.338C497.052 174.338 510.181 181.133 515.816 203.998Z" fill="#F3F2F1"/>
<path d="M92.7314 1191.5H355.464V965.449H92.7314V1191.5Z" fill="#F47457"/>
<path d="M92.7314 1191.5H170.157V965.449H92.7314V1191.5Z" fill="#EB6142"/>
<path d="M433.727 1191.5H696.46V861.44H433.727V1191.5Z" fill="#F47457"/>
<path d="M433.727 1191.5H511.151V861.44H433.727V1191.5Z" fill="#EB6142"/>
<path d="M774.722 1191.5H1037.46V757.429H774.722V1191.5Z" fill="#F47457"/>
<path d="M774.722 1191.5H852.146V757.429H774.722V1191.5Z" fill="#EB6142"/>
<path d="M1115.72 1191.5H1378.45V653.42H1115.72V1191.5Z" fill="#F47457"/>
<path d="M1115.72 1191.5H1193.14V653.42H1115.72V1191.5Z" fill="#EB6142"/>
<path d="M92.3662 675.151C98.7847 675.148 106.112 675.001 113.083 674.848C120.168 674.635 127.242 674.473 134.366 674.164C148.581 673.645 162.853 672.936 177.116 672.093C205.66 670.49 234.217 668.176 262.748 665.586C319.799 660.225 376.717 653.097 433.285 644.171C489.853 635.245 546.075 624.517 601.784 611.975C657.434 599.257 712.478 584.538 766.773 567.887C821.176 551.442 874.32 532.026 926.523 510.86C978.87 489.88 1029.34 465.529 1078.47 439.27L1115 419.088L1150.46 397.52C1162.47 390.526 1173.74 382.693 1185.18 375.027L1202.33 363.511L1210.9 357.748L1219.14 351.634L1252.08 327.118C1257.69 323.135 1262.75 318.645 1268.03 314.35L1283.74 301.342L1299.46 288.325C1304.67 283.952 1309.44 279.219 1314.45 274.68L1344.22 247.148L1346.18 248.583L1317.89 277.4C1313.11 282.163 1308.57 287.121 1303.6 291.725L1288.54 305.445L1273.46 319.179C1268.4 323.721 1263.54 328.46 1258.12 332.692L1226.32 358.759L1218.34 365.272L1210.02 371.434L1193.37 383.77C1182.26 391.988 1171.28 400.383 1159.56 407.944L1124.88 431.247L1089.05 453.205C1040.79 481.854 990.888 508.707 938.914 532.218C887.083 555.917 834.073 577.917 779.649 596.949C725.33 616.191 670.068 633.513 614.047 648.832C557.974 663.971 501.223 677.292 443.954 688.802C386.686 700.315 328.908 710.016 270.718 717.934C241.602 721.806 212.42 725.395 183.058 728.271C168.385 729.756 153.684 731.098 138.901 732.254C131.53 732.878 124.092 733.364 116.669 733.889C109.126 734.37 101.936 734.826 93.8278 735.168L92.3662 675.151Z" fill="#F47457"/>
<path d="M1355.07 282.941L1338.02 255.232L1303.16 246.624L1378.81 211.496L1355.07 282.941Z" fill="#F47457"/>
<path d="M1270.79 636.422H1221.16C1221.16 636.422 1217.31 626.742 1231.68 589.405C1246.05 552.07 1254.83 516.809 1235.67 480.165C1216.51 443.52 1204.01 398.004 1224.71 352.061C1248.08 300.19 1254.54 300.938 1224.11 227.142C1221.45 220.689 1223.96 220.424 1227.69 224.575C1231.41 228.723 1253.76 277.584 1256.42 290.949C1256.42 290.949 1278.24 259.605 1286.23 259.143C1294.21 258.684 1291.45 259.908 1286.23 265.137C1248.81 302.555 1228.22 363.316 1227.16 393.276C1226.09 423.24 1244.19 455.502 1244.19 455.502C1244.19 455.502 1268.66 423.24 1284.63 409.871C1300.59 396.503 1311.24 376.222 1302.72 358.247C1294.21 340.268 1329.5 367.005 1305.73 396.503C1305.73 396.503 1341.57 390.512 1350.08 402.956C1353.78 408.362 1349.85 406.288 1341.65 404.217C1330.96 401.518 1313.03 398.817 1295.27 412.636C1263.87 437.067 1254.3 466.106 1254.3 466.106C1254.3 466.106 1284.87 526.39 1275.05 560.138C1259.09 614.989 1270.79 636.422 1270.79 636.422Z" fill="#F47457"/>
<path d="M1270.79 636.422H1221.16C1221.16 636.422 1220.69 635.245 1220.69 632.13C1220.69 626.31 1222.32 613.725 1231.68 589.405C1240.15 567.383 1246.69 546.082 1246.69 524.796C1246.69 509.99 1243.53 495.193 1235.67 480.165C1223.51 456.904 1214.03 430.068 1214.02 401.819C1214.02 385.563 1217.15 368.842 1224.71 352.061C1237.02 324.733 1244.64 312.01 1244.64 295.295C1244.64 280.288 1238.51 262.057 1224.11 227.142C1223.34 225.284 1223.01 223.936 1223.01 223.063C1223.01 222.216 1223.32 221.811 1223.86 221.811C1224.69 221.811 1226.08 222.781 1227.69 224.575C1231.41 228.723 1253.77 277.584 1256.43 290.949C1256.43 290.949 1278.25 259.605 1286.23 259.143C1287.23 259.086 1288.06 259.056 1288.75 259.056C1290.5 259.056 1291.24 259.263 1291.23 259.758C1291.23 260.598 1289.1 262.264 1286.23 265.137C1248.81 302.555 1228.22 363.316 1227.16 393.276C1227.13 394.126 1227.11 394.975 1227.11 395.828C1227.1 425.041 1244.19 455.502 1244.19 455.502C1244.19 455.502 1268.67 423.24 1284.63 409.871C1296.69 399.769 1305.72 385.713 1305.74 371.69C1305.74 367.161 1304.8 362.635 1302.72 358.247C1301.77 356.242 1301.37 354.792 1301.37 353.844C1301.36 352.877 1301.77 352.424 1302.45 352.424C1305.53 352.424 1314.09 361.774 1314.1 374.758C1314.11 381.325 1311.92 388.822 1305.73 396.503C1305.73 396.503 1314.36 395.062 1324.15 395.062C1334.32 395.062 1345.75 396.617 1350.08 402.956C1351.03 404.346 1351.48 405.243 1351.48 405.771C1351.48 406.216 1351.16 406.399 1350.56 406.399C1349.1 406.399 1345.97 405.309 1341.65 404.217C1337.33 403.124 1331.82 402.035 1325.63 402.035C1316.49 402.035 1305.85 404.403 1295.27 412.636C1263.87 437.067 1254.3 466.106 1254.3 466.106C1254.3 466.106 1276.98 510.827 1277 544.797C1277 550.266 1276.41 555.458 1275.05 560.138C1274.89 560.684 1274.74 561.221 1274.58 561.761C1272.45 569.283 1270.83 576.162 1269.64 582.432C1268.95 586.046 1268.4 589.459 1267.97 592.673C1267.02 599.771 1266.66 605.906 1266.66 611.159C1266.65 628.84 1270.79 636.422 1270.79 636.422Z" fill="#7A5717"/>
<path d="M1261.08 458.609C1261.08 458.609 1305.62 447.942 1329.77 485.717C1329.77 485.717 1284.36 492.933 1261.08 458.609Z" fill="#3E8DAC"/>
<path d="M1151.86 252.027C1151.86 252.027 1192.69 233.277 1225.7 265.641C1225.7 265.641 1183.15 281.183 1151.86 252.027Z" fill="#3E8DAC"/>
<path d="M1272.42 448.204C1272.42 448.204 1294.58 428.299 1324.27 443.414C1324.27 443.414 1300.2 461.531 1272.42 448.204Z" fill="#3E8DAC"/>
<path d="M1252.31 254.955C1252.31 254.955 1255.79 227.468 1289.96 223.704C1289.96 223.704 1283.69 250.792 1252.31 254.955Z" fill="#3E8DAC"/>
<path d="M1162.22 349.091C1162.22 349.091 1193.46 343.416 1208.22 370.371C1208.22 370.371 1176.54 373.637 1162.22 349.091Z" fill="#3E8DAC"/>
<path d="M1189.45 536.274L1192.26 565.199L1200.89 653.42H1293.28L1301.9 565.199L1304.72 536.274H1189.45Z" fill="#33535F"/>
<path d="M1189.45 536.278L1192.26 565.203H1301.9L1304.72 536.278H1189.45Z" fill="#17282F"/>
<path d="M1180.38 552.42H1313.78V524.666H1180.38V552.42Z" fill="#33535F"/>
<path d="M878.567 732.643H935.95C935.95 732.643 899.323 688.432 891.042 664.729C878.782 629.64 900.186 595.721 929.332 576.971C936.743 572.201 944.27 574.011 952.825 575.821C959.544 577.241 966.897 578.664 975.331 576.896C998.922 571.949 998.392 554.856 997.467 553.157C996.538 551.462 993.218 568.089 981.922 571.373C968.789 575.191 960.053 572.706 951.605 570.221C943.386 567.801 935.441 565.382 923.992 568.771C923.992 568.771 925.433 559.151 924.366 547.266C923.295 535.38 937.769 500.308 976.398 503.892C981.388 504.354 978.36 501.422 969.271 500.807C960.185 500.188 950.559 503.739 950.559 503.739C950.559 503.739 958.581 496.019 959.471 486.298C960.362 476.573 967.136 470.552 966.422 469.009C965.705 467.464 960.005 470.861 957.51 481.048C957.51 481.048 951.81 496.947 945.039 502.04C938.265 507.134 924.231 521.219 920.665 534.957C920.665 534.957 919.657 526.325 917.949 509.76C916.698 497.622 908.149 487.84 906.011 488.612C903.873 489.383 914.206 500.032 914.743 511.456C915.277 522.879 912.751 535.224 915.343 544.708C919.487 559.875 915.1 576.439 906.725 584.774C898.346 593.109 876.61 610.133 875.539 640.697C874.468 671.257 887.476 719.989 878.567 732.643Z" fill="#F47457"/>
<path d="M935.95 732.643H878.567C880.865 729.38 881.703 723.719 881.707 716.591C881.707 697.175 875.477 666.869 875.477 644.452C875.477 643.173 875.497 641.919 875.539 640.697C876.61 610.133 898.346 593.109 906.725 584.774C912.907 578.621 916.916 567.981 916.926 556.732C916.926 552.743 916.428 548.679 915.343 544.708C915.194 544.153 915.059 543.589 914.941 543.013C914.345 540.122 914.151 537.001 914.151 533.744C914.154 527.732 914.816 521.267 914.82 514.961C914.82 513.785 914.795 512.617 914.743 511.456C914.258 501.104 905.724 491.388 905.72 489.083C905.72 488.843 905.81 488.684 906.011 488.612C906.091 488.585 906.178 488.57 906.275 488.57C908.776 488.57 916.743 498.072 917.949 509.76C919.657 526.325 920.665 534.957 920.665 534.957C924.231 521.219 938.265 507.134 945.039 502.04C951.81 496.947 957.51 481.048 957.51 481.048C959.627 472.41 964.049 468.655 965.778 468.655C966.09 468.655 966.312 468.775 966.422 469.009C966.457 469.088 966.474 469.178 966.474 469.28C966.461 471.173 960.317 477.065 959.471 486.298C958.581 496.019 950.559 503.739 950.559 503.739C950.559 503.739 958.706 500.735 967.084 500.735C967.815 500.735 968.543 500.756 969.271 500.807C975.411 501.224 978.786 502.697 978.789 503.466C978.793 503.754 978.325 503.943 977.362 503.943C977.081 503.943 976.762 503.925 976.399 503.892C974.534 503.718 972.732 503.637 970.979 503.637C937.662 503.637 924.318 533.663 924.311 545.96C924.311 546.422 924.328 546.857 924.366 547.266C924.654 550.468 924.761 553.509 924.761 556.24C924.761 563.638 923.992 568.771 923.992 568.771C928.057 567.57 931.674 567.099 935.021 567.099C941.113 567.099 946.3 568.66 951.606 570.221C956.911 571.781 962.33 573.342 968.879 573.342C972.76 573.342 977.036 572.793 981.922 571.373C992.674 568.249 996.198 553.037 997.314 553.037C997.37 553.037 997.422 553.076 997.467 553.157C997.633 553.467 997.789 554.283 997.789 555.441C997.789 560.664 994.639 572.847 975.331 576.896C972.528 577.484 969.846 577.718 967.264 577.718C962.081 577.718 957.309 576.77 952.825 575.821C948.338 574.87 944.135 573.921 940.084 573.921C936.407 573.921 932.859 574.702 929.332 576.971C905.939 592.02 887.528 616.848 887.518 644.206C887.514 650.929 888.623 657.805 891.042 664.729C899.324 688.432 935.95 732.643 935.95 732.643Z" fill="#7A5717"/>
<path d="M913.195 563.563C913.195 563.563 873.755 569.049 857.164 534.602C857.164 534.602 896.972 532.153 913.195 563.563Z" fill="#3E8DAC"/>
<path d="M910.804 571.543C910.804 571.543 896.109 591.773 867.902 583.525C867.902 583.525 884.584 564.514 910.804 571.543Z" fill="#3E8DAC"/>
<path d="M1032.54 589.556C1032.54 589.556 1005.89 595.763 991.651 573.12C991.651 573.12 1018.8 568.975 1032.54 589.556Z" fill="#3E8DAC"/>
<path d="M949.421 491.963C949.421 491.963 922.133 488.409 919.555 462.72C919.555 462.72 946.351 468.339 949.421 491.963Z" fill="#3E8DAC"/>
<path d="M853.169 640.687L855.983 669.612L864.611 757.83H956.998L965.623 669.612L968.44 640.687H853.169Z" fill="#33535F"/>
<path d="M853.169 640.687L855.983 669.611H965.623L968.44 640.687H853.169Z" fill="#17282F"/>
<path d="M844.104 656.828H977.504V629.08H844.104V656.828Z" fill="#33535F"/>
<path d="M525.155 828.842H571.65C571.65 828.842 541.975 793.02 535.263 773.811C525.328 745.378 542.675 717.888 566.289 702.698C572.294 698.835 578.393 700.3 585.323 701.767C590.771 702.917 596.731 704.07 603.564 702.635C622.681 698.628 622.248 684.779 621.499 683.402C620.747 682.027 618.058 695.501 608.907 698.163C598.266 701.254 591.183 699.243 584.339 697.229C577.679 695.269 571.241 693.31 561.965 696.056C561.965 696.056 561.372 688.255 562.266 678.627C564.165 658.154 583.49 643.357 583.49 643.357C583.49 643.357 589.991 637.102 590.712 629.223C591.432 621.341 596.921 616.464 596.342 615.215C595.764 613.964 591.145 616.716 589.125 624.97C589.125 624.97 584.502 637.852 579.013 641.979C573.528 646.106 562.159 657.521 559.269 668.653C559.269 668.653 554.757 702.266 547.969 709.019C541.181 715.775 523.568 729.57 522.701 754.334C521.835 779.099 532.373 818.586 525.155 828.842Z" fill="#F47457"/>
<path d="M571.651 828.842H525.156C527.016 826.198 527.699 821.611 527.699 815.834C527.699 800.1 522.65 775.543 522.65 757.378C522.65 756.342 522.668 755.325 522.702 754.334C523.569 729.57 541.182 715.775 547.97 709.019C554.758 702.266 559.27 668.653 559.27 668.653C562.16 657.52 573.529 646.106 579.014 641.979C584.503 637.852 589.126 624.97 589.126 624.97C590.837 617.971 594.42 614.927 595.824 614.927C596.077 614.927 596.257 615.026 596.343 615.215C596.371 615.278 596.385 615.347 596.388 615.426C596.395 616.95 591.399 621.729 590.713 629.223C589.992 637.102 583.491 643.357 583.491 643.357C583.491 643.357 564.166 658.154 562.267 678.626C561.883 682.765 561.772 686.565 561.772 689.552C561.772 693.52 561.966 696.056 561.966 696.056C565.254 695.08 568.189 694.699 570.902 694.699C575.837 694.699 580.043 695.963 584.34 697.229C588.64 698.493 593.031 699.757 598.339 699.757C601.482 699.757 604.947 699.312 608.908 698.163C617.616 695.63 620.475 683.303 621.375 683.303C621.421 683.303 621.462 683.336 621.5 683.402C621.635 683.651 621.76 684.314 621.76 685.254C621.764 689.486 619.21 699.357 603.565 702.635C601.292 703.112 599.119 703.304 597.026 703.304C592.826 703.304 588.959 702.533 585.324 701.767C581.689 700.996 578.287 700.228 575.002 700.228C572.025 700.228 569.146 700.861 566.29 702.698C547.333 714.893 532.415 735.011 532.408 757.183C532.405 762.63 533.302 768.201 535.263 773.811C541.975 793.02 571.651 828.842 571.651 828.842Z" fill="#7A5717"/>
<path d="M554.115 679.07C554.115 679.07 526.519 679.064 519.564 653.99C519.564 653.99 547.026 656.1 554.115 679.07Z" fill="#3E8DAC"/>
<path d="M660.321 666.617C660.321 666.617 651.402 689.238 621.761 686.846C621.761 686.846 632.932 665.014 660.321 666.617Z" fill="#3E8DAC"/>
<path d="M592.377 615.826C592.377 615.826 567.303 605.846 573.062 580.547C573.062 580.547 597.003 592.394 592.377 615.826Z" fill="#3E8DAC"/>
<path d="M488.338 744.293L491.152 773.221L499.78 861.441H592.167L600.792 773.221L603.606 744.293H488.338Z" fill="#33535F"/>
<path d="M488.338 744.295L491.152 773.223H600.792L603.606 744.295H488.338Z" fill="#17282F"/>
<path d="M479.273 760.439H612.674V732.688H479.273V760.439Z" fill="#33535F"/>
<path d="M209.263 895.977H246.012C246.012 895.977 222.557 867.664 217.253 852.483C209.401 830.011 226.166 804.976 240.435 797.163C245.4 794.447 250.575 795.26 256.303 796.074C260.87 796.722 265.79 797.37 271.236 796.23C286.346 793.06 286.003 782.114 285.409 781.028C284.816 779.938 282.691 790.59 275.458 792.691C267.048 795.137 261.451 793.544 256.041 791.953C250.777 790.404 245.687 788.855 238.356 791.025C238.356 791.025 238.917 773.683 223.433 765.663C220.666 764.232 229.806 772.495 232.237 782.231C234.14 789.849 232.692 795.774 227.296 801.275C222.005 806.666 208.009 817.516 207.325 837.088C206.64 856.664 214.971 887.872 209.263 895.977Z" fill="#F47457"/>
<path d="M246.013 895.977H209.263C210.734 893.887 211.273 890.262 211.273 885.696C211.275 873.261 207.284 853.851 207.284 839.492C207.284 838.676 207.296 837.872 207.325 837.088C208.01 817.516 222.006 806.666 227.297 801.275C231.195 797.298 233.033 793.102 233.035 788.204C233.036 786.325 232.765 784.344 232.237 782.231C230.119 773.746 222.908 766.381 222.918 765.576C222.918 765.528 222.945 765.501 223.001 765.501C223.08 765.501 223.222 765.555 223.434 765.663C237.874 773.143 238.359 788.732 238.359 790.797C238.359 790.947 238.357 791.025 238.357 791.025C240.958 790.257 243.276 789.954 245.421 789.954C249.321 789.954 252.644 790.953 256.041 791.953C259.439 792.952 262.909 793.952 267.104 793.952C269.589 793.952 272.329 793.601 275.458 792.691C282.342 790.692 284.599 780.95 285.313 780.95C285.348 780.95 285.381 780.974 285.409 781.028C285.518 781.223 285.618 781.748 285.618 782.489C285.619 785.833 283.601 793.637 271.236 796.23C269.069 796.683 266.985 796.854 264.973 796.854C261.93 796.854 259.053 796.464 256.304 796.074C253.555 795.684 250.933 795.293 248.4 795.293C245.657 795.293 243.018 795.75 240.436 797.163C228.688 803.595 215.25 821.697 215.247 840.435C215.246 844.46 215.866 848.512 217.253 852.483C222.558 867.664 246.013 895.977 246.013 895.977Z" fill="#7A5717"/>
<path d="M166.465 848.312L169.278 877.234L177.904 965.455H270.292L278.917 877.234L281.731 848.312H166.465Z" fill="#33535F"/>
<path d="M166.465 848.309L169.278 877.23H278.917L281.731 848.309H166.465Z" fill="#17282F"/>
<path d="M157.397 864.447H290.799V836.696H157.397V864.447Z" fill="#33535F"/>
<path d="M9.18164 1191.51L190.784 1190.78L372.384 1190.51L735.589 1190.01L1098.79 1190.51L1280.4 1190.77L1462 1191.51L1280.4 1192.24L1098.79 1192.5L735.589 1193L372.384 1192.5L190.784 1192.23L9.18164 1191.51Z" fill="#17282F"/>
<path d="M674.879 133.098C667.692 131.129 661.781 127.756 658.046 121.96C654.223 116.029 652.148 108.385 653.451 101.643C654.102 98.2819 655.779 95.1904 657.443 92.1289L657.578 91.8798C656.885 94.0138 656.434 96.2019 656.219 98.4169C655.54 105.497 657.228 112.701 660.88 119.049C664.172 124.763 669.061 129.683 675.198 133.182L674.879 133.098ZM782.132 137.483C782.135 137.784 782.648 137.748 782.659 137.456C783.137 123.275 799.25 113.835 798.706 99.4013C798.47 93.0623 795.528 86.9215 791.429 81.744C788.698 78.3014 785.323 75.3329 782.118 72.2445C781.675 71.7252 781.235 71.203 780.798 70.6807C778.029 67.3702 775.295 63.9936 773.251 60.2959C770.891 56.0278 769.876 51.4956 769.325 46.8254C768.278 37.9442 767.915 28.9009 760.745 21.8626C754.761 15.9918 746.112 12.5672 737.453 10.7393C717.836 6.60031 694.499 9.5867 681.501 24.1406C679.197 26.7278 677.395 29.5492 676.109 32.5987C676.109 32.5987 664.692 39.7931 661.247 51.3696C658.215 61.5655 666.078 69.9244 665.353 75.0058C664.716 79.487 661.556 83.3198 659.463 87.3627C657.307 90.8083 655.169 94.275 653.648 97.9397C651.517 103.072 651.732 108.55 653.201 113.799C654.518 118.502 656.815 123.107 660.561 126.753C664.179 130.274 668.933 132.318 674.082 133.645C675.312 133.963 676.549 134.254 677.783 134.536L677.88 134.584C682.204 136.643 686.882 138.174 691.002 140.551C695.663 143.258 698.563 147.028 700.116 151.671C701.529 155.867 701.997 160.246 703.085 164.508C704.104 168.497 705.816 172.258 708.487 175.632C713.73 182.262 721.735 186.962 730.505 189.417C740.737 192.277 751.933 192.193 762.408 190.399C771.854 188.793 780.763 185.239 786.061 177.991C790.615 171.766 792.08 163.782 789.606 156.699C788.106 152.389 785.063 148.67 782.669 144.723C780.257 140.719 778.923 136.526 779.606 132C781.789 117.383 798.051 106.074 793.761 90.4271C792.659 86.4052 790.455 82.7615 787.87 79.3008C792.697 84.4092 796.353 90.4901 797.34 97.0873C798.439 104.45 795.338 110.93 791.162 117.185C786.98 123.458 782.007 129.95 782.132 137.483Z" fill="#17282F"/>
<path d="M712.088 140.886C725.672 200.153 760.261 252.14 780.556 256.162C809.674 261.937 887.338 254.244 922.62 245.195C932.984 242.536 907.473 173.074 896.389 175.904C882.989 179.326 805.21 195.041 803.811 195.02C800.806 194.975 754.062 141.19 742.873 127.272C722.342 101.754 704.704 108.651 712.088 140.886Z" fill="#ECA4AA"/>
<path d="M966.115 234.038C951.375 241.785 914.076 247.406 904.477 245.767C894.876 244.126 881.725 189.518 888.247 182.903C894.768 176.29 946.731 153.543 964.175 155.521C981.618 157.496 981.39 226.015 966.115 234.038Z" fill="#ECA4AA"/>
<path d="M1139.14 186.255L1132.47 212.974L1158.65 226.732L1139.14 186.255Z" fill="#3E8DAC"/>
<path d="M1066.2 230.344L1046.67 265.221L1140.14 217.057L1133.76 208.299L1066.2 230.344Z" fill="#33535F"/>
<path d="M960.806 235.201C938.453 215.62 961.354 148.475 973.513 150.813C985.672 153.151 998.999 196.957 998.999 196.957L982.207 239.082C982.207 239.082 967.962 241.483 960.806 235.201ZM1004.62 192.758C1004.62 192.758 988.551 142.436 972.934 139.426C957.296 136.409 926.848 216.721 955.553 241.873C964.736 249.956 983.052 246.865 983.052 246.865L1004.62 192.758Z" fill="#33535F"/>
<path d="M1070.28 288.01L967.104 271.256L1012.55 141.675L1078.64 152.922L1070.28 288.01Z" fill="#3E8DAC"/>
<path d="M1012.55 141.672L1004.06 130.317L1088.85 143.274L1078.64 152.918L1012.55 141.672Z" fill="#33535F"/>
<path d="M1151.86 191.16C1151.86 191.16 1160.86 180.745 1163.82 185.181C1166.77 189.62 1151.86 191.16 1151.86 191.16Z" fill="#33535F"/>
<path d="M1154.86 207.805C1154.86 207.805 1165.75 198.852 1167.81 203.657C1169.86 208.466 1154.86 207.805 1154.86 207.805Z" fill="#33535F"/>
<path d="M1172.61 196.573C1172.61 196.573 1186.25 191.126 1186.41 196.246C1186.57 201.37 1172.61 196.573 1172.61 196.573Z" fill="#33535F"/>
<path d="M1180.24 209.468C1180.24 209.468 1194.36 205.038 1194.02 210.152C1193.68 215.27 1180.24 209.468 1180.24 209.468Z" fill="#33535F"/>
<path d="M1179.86 185.568C1179.86 185.568 1192.14 178.074 1193.37 183.086C1194.59 188.099 1179.86 185.568 1179.86 185.568Z" fill="#33535F"/>
<path d="M1196.8 196.062C1196.8 196.062 1211.14 192.191 1210.53 197.29C1209.92 202.386 1196.8 196.062 1196.8 196.062Z" fill="#33535F"/>
<path d="M1161.78 225.517C1161.78 225.517 1176.64 227.426 1173.53 231.79C1170.43 236.151 1161.78 225.517 1161.78 225.517Z" fill="#33535F"/>
<path d="M1193.41 247.12C1193.41 247.12 1204.74 255.665 1199.41 257.892C1194.09 260.119 1193.41 247.12 1193.41 247.12Z" fill="#33535F"/>
<path d="M1176.47 238.938C1176.47 238.938 1189.49 245.436 1184.75 248.507C1180.02 251.58 1176.47 238.938 1176.47 238.938Z" fill="#33535F"/>
<path d="M1167.12 218.27C1167.12 218.27 1181.94 216.157 1180.53 221.131C1179.11 226.107 1167.12 218.27 1167.12 218.27Z" fill="#33535F"/>
<path d="M1186.18 228.648C1186.18 228.648 1200.19 233.336 1196.06 237.004C1191.93 240.669 1186.18 228.648 1186.18 228.648Z" fill="#33535F"/>
<path d="M936.64 157.15C932.405 164.158 944.367 164.467 944.367 164.467C944.367 164.467 927.024 167.622 925.891 176.311C924.824 184.688 939.291 184.616 940.323 184.625C939.408 184.799 923.559 188.058 923.458 196.891C923.361 206.073 937.867 203.843 938.806 203.693C937.998 204.095 927.454 209.527 929.141 216.254C932.042 227.815 959.44 214.561 969.943 217.559C969.943 217.559 966.114 233.554 966.114 234.037C966.114 234.037 992.481 221.893 996.355 209.398C998.399 202.81 991.711 199.863 991.711 199.863C991.711 199.863 1000.71 196.759 1001.05 189.808C1001.21 186.236 994.761 182.839 994.761 182.839C994.761 182.839 1001.85 180.093 1001.7 173.892C1001.6 168.942 995.149 166.304 995.149 166.304C995.149 166.304 1000.54 160.931 998.541 155.904C994.535 145.759 945.715 142.143 936.64 157.15Z" fill="#ECA4AA"/>
<path d="M994.198 165.752L994.271 165.536C978.549 160.953 959.65 160.088 943.725 164.389C943.198 164.53 943.236 165.329 943.85 165.269C961.244 163.555 976.844 163.237 994.198 165.752Z" fill="#17282F"/>
<path d="M995.012 182.767L995.057 182.47C978.833 177.824 957.519 177.359 939.83 184.19C939.223 184.421 938.95 185.159 939.674 184.937C951.833 181.168 979.402 180.435 995.012 182.767Z" fill="#17282F"/>
<path d="M937.759 204.539C955.015 198.557 972.746 197.969 991.056 199.632L991.115 199.296C982.41 196.366 970.612 196.36 961.429 197.03C952.634 197.669 944.845 199.776 937.52 204.017C937.235 204.179 937.391 204.668 937.759 204.539Z" fill="#17282F"/>
<path d="M944.368 164.465C941.103 165.354 937.916 166.455 934.925 167.833C931.987 169.217 929.086 170.958 927.492 173.317C926.72 174.484 926.394 175.805 926.706 177.077C927.035 178.368 927.693 179.644 928.702 180.601C930.684 182.567 934.052 183.353 937.028 183.305L944.517 183.182L937.534 185.553C934.485 186.589 931.432 188.051 928.955 189.879C926.474 191.697 924.564 194.081 924.537 196.632C924.447 199.3 926.054 201.527 928.962 202.28C931.799 203.127 935.337 202.989 938.453 202.445L947.15 200.924L939.541 204.811C937.475 205.861 935.424 207.212 933.73 208.706C932.046 210.207 930.628 211.966 930.264 213.821C929.897 215.637 930.677 217.648 932.361 218.638C934.118 219.701 936.699 219.953 939.166 219.98C944.208 219.98 949.316 219.046 954.434 218.338C956.994 217.966 959.566 217.588 962.161 217.321C964.732 217.092 967.445 216.831 969.944 217.558C967.39 217.062 964.798 217.57 962.272 217.936C959.735 218.371 957.223 218.911 954.701 219.452C949.659 220.535 944.569 221.574 939.205 221.832C936.547 221.88 933.664 221.85 930.985 220.451C928.234 218.986 927.073 216.024 927.575 213.446C928.071 210.816 929.817 208.73 931.675 207.002C933.598 205.267 935.684 203.841 938.071 202.578L939.156 204.94C935.486 205.609 931.786 205.87 927.946 204.841C926.061 204.327 924.18 203.226 923.036 201.644C921.879 200.062 921.477 198.298 921.532 196.551C921.678 192.931 924.318 189.993 927.125 188.003C930.015 185.959 933.186 184.494 936.647 183.371L937.146 185.616C933.362 185.568 929.551 184.437 927.056 181.805C925.839 180.499 925.157 178.944 924.852 177.336C924.533 175.676 925.081 173.926 926.092 172.581C928.185 169.865 931.418 168.379 934.527 167.128C937.694 165.909 941.006 165.036 944.368 164.465Z" fill="#17282F"/>
<path d="M896.31 177.679C896.31 177.679 938.872 126.154 953.973 150.429C958.46 157.645 966.943 191.909 959.032 193.518C948.817 195.595 942.191 181.866 939.613 172.676C939.613 172.676 927.984 191.966 910.066 188.958C898.825 187.074 896.31 177.679 896.31 177.679Z" fill="#ECA4AA"/>
<path d="M952.572 148.481C954.838 151.047 956.266 154.094 957.576 157.11C958.879 160.142 959.838 163.275 960.66 166.427C962.205 172.766 963.518 179.072 963.785 185.669C963.823 187.326 963.782 189.012 963.241 190.801C962.967 191.684 962.513 192.638 961.737 193.439C961.36 193.845 960.978 194.16 960.341 194.523C959.766 194.811 959.19 195.021 958.619 195.12C956.311 195.622 954.045 195.138 952.156 194.328C950.288 193.454 948.757 192.266 947.43 190.981C944.807 188.373 943.057 185.366 941.664 182.31C940.229 179.255 939.249 176.103 938.358 172.946L940.77 173.177C939.325 175.401 937.679 177.364 935.839 179.258C934.006 181.14 931.965 182.874 929.726 184.393C927.471 185.9 924.969 187.131 922.321 187.998C919.677 188.883 916.853 189.313 914.067 189.271C916.836 188.982 919.511 188.316 921.964 187.281C924.428 186.254 926.642 184.849 928.683 183.298C930.721 181.743 932.557 179.996 934.189 178.114C935.815 176.247 937.305 174.212 938.452 172.177L939.91 169.59L940.87 172.406C941.896 175.44 942.908 178.483 944.38 181.335C945.805 184.183 947.44 186.995 949.748 189.208C951.962 191.369 955.098 193.115 957.877 192.521C960.369 192.185 960.854 188.685 960.847 185.684C960.864 182.574 960.507 179.399 960.143 176.232C959.773 173.057 959.357 169.89 958.75 166.751C957.409 160.523 956.093 154.145 952.572 148.481Z" fill="#17282F"/>
<path d="M837.409 187.441L843.016 260.886C843.016 260.886 787.161 267.411 771.745 256.323C756.325 245.233 720.742 190.814 712.044 147.717C703.354 104.622 721.279 98.0493 750.431 134.64C779.583 171.23 802.813 193.744 804.213 193.684C805.617 193.624 837.409 187.441 837.409 187.441Z" fill="#F47457"/>
<path d="M822.362 193.323L821.877 193.356C821.697 214.943 823.305 236.61 825.841 258.076L826.326 258.043C826.233 236.466 825.172 214.775 822.362 193.323Z" fill="#17282F"/>
<path d="M797.175 262.447C790.22 262.012 783.678 261.109 778.543 259.494C783.685 261.103 790.227 262.003 797.172 262.441L797.175 262.447Z" fill="#E0E1DE"/>
<path d="M710.188 122.982C711.106 115.899 713.854 111.862 718.081 111.016C713.857 111.868 711.109 115.905 710.188 122.982Z" fill="#142228"/>
<path d="M797.171 262.441C790.227 262.003 783.685 261.103 778.543 259.494C775.843 258.645 773.532 257.597 771.751 256.318C756.345 245.222 720.748 190.83 712.057 147.709C709.954 137.303 709.403 129.031 710.186 122.98C711.108 115.903 713.856 111.866 718.08 111.014C718.638 110.902 719.22 110.848 719.826 110.848C722.467 110.848 725.575 111.899 729.088 114.03L797.171 262.441Z" fill="#EB6142"/>
<path d="M663.108 868.705C656.452 869.371 478.652 836.548 472.803 831.568C470.544 829.71 474.556 806.993 480.312 779.662C480.378 779.376 480.44 779.091 480.502 778.806C481.677 773.172 512.985 678.916 512.985 678.916L628.876 702.558L595.486 798.874L595.025 800.551C595.025 800.551 656.594 839.483 662.363 845.543C668.081 851.573 669.761 868.063 663.108 868.705Z" fill="#ECA4AA"/>
<path d="M477.513 793.252C473.362 814.193 470.919 830.025 472.811 831.568C478.663 836.553 656.453 869.374 663.116 868.705C669.776 868.056 668.085 851.579 662.361 845.537C658.847 841.854 634.622 825.958 616.209 814.079C628.548 822.729 646.289 843.427 570.188 822.246C523.236 809.177 493.9 799.267 477.513 793.252Z" fill="#17282F"/>
<path d="M730.4 237.437C730.4 237.437 740.331 311.059 722.791 327.824C722.791 327.824 695.815 494.641 684.705 543.477C670.041 607.947 610.753 772.107 610.753 772.107L483.967 745.539C483.967 745.539 564.063 536.424 564.687 532.222C568.222 508.378 588.96 342.913 587.29 338.825C565.706 286.063 594.473 237.437 594.473 237.437H730.4Z" fill="#3E8DAC"/>
<path d="M608.405 742.572C590.747 738.346 595.899 739.274 578.172 735.273C569.495 733.316 512.473 720.509 503.907 720.299L503.789 720.713C511.485 723.985 568.83 735.654 577.558 737.422C595.397 741.036 590.334 739.775 608.235 743.161C608.571 743.227 608.734 742.651 608.405 742.572Z" fill="#17282F"/>
<path d="M594.85 724.391L633.236 607.308L642.734 578.014L647.353 563.346C648.926 558.448 650.285 553.583 651.103 548.594C654.512 528.551 657.485 508.417 660.535 488.311L679.205 367.674L683.883 337.513L686.277 322.437C686.717 319.898 687.043 317.475 687.58 314.837C687.875 313.424 688.027 312.532 688.076 311.188L688.228 307.406C688.71 287.143 688.554 266.844 688.481 246.561C688.977 266.844 689.559 287.119 689.503 307.427C689.479 308.699 689.472 309.966 689.389 311.248C689.403 312.445 689.07 314.06 688.876 315.143C688.426 317.508 688.072 320.126 687.663 322.602L685.38 337.684L680.92 367.866L663.102 488.605C659.914 508.708 656.799 528.806 653.234 548.885C652.371 553.943 650.936 558.937 649.332 563.805L644.605 578.467L634.893 607.716L615.155 666.127L594.85 724.391Z" fill="#17282F"/>
<path d="M722.787 327.822C722.787 327.822 712.183 393.406 701.545 454.332L594.473 237.452H730.41C730.41 237.452 740.32 311.047 722.787 327.822Z" fill="#17282F"/>
<path d="M939.98 757.853C933.614 759.663 751.823 758.43 744.945 754.57C742.297 753.144 761.844 613.251 761.844 613.251L878.009 617.591L857.485 702.93C857.485 702.93 926.826 730.36 933.881 735.292C940.877 740.208 946.349 756.064 939.98 757.853Z" fill="#ECA4AA"/>
<path d="M939.988 757.853C937.181 758.645 900.527 758.852 859.704 758.519C857.022 758.486 854.312 758.459 851.603 758.429C844.634 758.384 837.604 758.285 830.632 758.186C827.918 758.132 825.205 758.075 822.523 758.042L822.399 758.051C819.717 757.994 817.034 757.937 814.415 757.901C810.35 757.847 806.372 757.757 802.491 757.661C799.962 757.595 797.47 757.526 795.041 757.481L794.944 757.487C792.515 757.415 790.117 757.34 787.813 757.286L787.716 757.291C784.213 757.201 780.865 757.102 777.674 756.967C775.526 756.904 773.408 756.841 771.385 756.745C767.438 756.598 763.831 756.433 760.636 756.244C759.021 756.175 757.503 756.076 756.107 755.968C752.621 755.74 749.832 755.5 747.922 755.233C746.363 755.022 745.334 754.785 744.939 754.563C744.017 754.074 744.61 737.038 745.736 714.893C763.287 718.453 795.391 724.033 844.489 730.147C925.219 740.207 901.161 721.403 887.449 715.019L887.054 714.827C887.9 715.157 888.78 715.515 889.626 715.875L890.052 716.037C891.615 716.682 893.177 717.325 894.74 717.97C896.434 718.657 898.16 719.375 899.858 720.092C902.693 721.256 905.524 722.424 908.233 723.6C910.971 724.717 913.58 725.843 916.058 726.923C917.53 727.571 918.965 728.196 920.334 728.766C921.02 729.054 921.675 729.369 922.326 729.657C923.21 730.042 924.09 730.426 924.908 730.813C926.737 731.632 928.342 732.383 929.721 733.061C930.046 733.208 930.372 733.352 930.67 733.523C932.146 734.256 933.234 734.871 933.868 735.297C940.875 740.198 946.332 756.052 939.988 757.853Z" fill="#17282F"/>
<path d="M872.75 663.742L751.037 665.018C751.037 665.018 781.187 473.836 778.048 464.784C776.824 461.245 629.192 345.264 629.192 345.264C576.242 300.056 594.475 237.435 594.475 237.435H730.402C730.402 237.435 732.231 255.824 739.38 262.773C780.258 302.499 884.458 384.685 900.422 421.194C920.451 467.014 872.75 663.742 872.75 663.742Z" fill="#3E8DAC"/>
<path d="M594.851 278.012C595.315 285.042 596.725 291.978 599.293 298.605C601.711 305.259 604.965 311.673 608.85 317.772C616.629 329.973 626.473 341.168 637.749 351.13C648.827 361.305 660.927 370.687 672.934 380.121C678.956 384.83 685.038 389.482 691.164 394.096L709.501 407.992C702.9 403.88 696.507 399.537 690.072 395.23C683.721 390.839 677.432 386.376 671.18 381.868C658.775 372.755 646.647 363.343 635.251 353.198C624.02 342.912 613.933 331.531 606.507 318.841C599.172 306.208 594.209 292.167 594.851 278.012Z" fill="#17282F"/>
<path d="M698.821 246.559C698.593 251.079 698.898 255.638 699.961 260.059C700.537 262.235 701.205 264.498 702.47 266.389C703.964 268.214 705.717 269.913 707.415 271.623C714.321 278.419 721.469 285.034 728.601 291.661L771.419 331.403C785.727 344.627 799.868 357.984 813.95 371.397C827.991 384.837 842.001 398.305 855.397 412.279C858.723 415.794 861.991 419.348 865.11 423.03C866.659 424.882 868.183 426.749 869.545 428.775C870.217 429.748 870.893 430.927 871.26 432.11C871.634 433.256 871.901 434.403 872.113 435.549C873.63 444.722 873.204 453.825 872.809 462.901C871.763 481.051 869.621 499.101 867.043 517.095C861.904 553.085 855.369 588.901 848.023 624.582C851.28 606.682 854.291 588.748 857.119 570.796C860.012 552.854 862.733 534.89 865.061 516.894C867.32 498.894 869.531 480.874 870.446 462.811C870.81 453.813 871.163 444.689 869.663 435.9C869.458 434.811 869.202 433.736 868.855 432.704C868.54 431.701 868.034 430.831 867.369 429.862C866.09 427.977 864.586 426.14 863.058 424.33C859.978 420.716 856.707 417.196 853.387 413.708C826.685 385.885 798.087 359.385 769.957 332.573L727.665 292.402C720.69 285.649 713.694 278.908 706.933 271.981C705.266 270.228 703.565 268.514 702.075 266.614C700.769 264.564 700.193 262.334 699.653 260.113C698.686 255.644 698.485 251.076 698.821 246.559Z" fill="#17282F"/>
<path d="M863.254 638.706C846.24 638.271 851.126 638.1 834.109 637.902C825.782 637.806 771.054 637.221 763.274 638.796V639.219C771.057 640.798 825.782 640.216 834.109 640.114C851.126 639.916 846.24 639.745 863.254 639.313C863.576 639.304 863.576 638.715 863.254 638.706Z" fill="#17282F"/>
<path d="M737.96 218.911L731.21 237.439C731.21 237.439 639.467 245.882 594.85 237.439C594.85 237.439 626.327 142.99 677.919 116.893C703.724 103.843 725.967 111.244 735.933 127.824C738.459 132.017 756.754 172.332 756.754 189.248C756.754 207.269 737.96 218.911 737.96 218.911Z" fill="#F47457"/>
<path d="M718.608 205.122C711.262 205.833 703.891 206.761 696.736 208.409C693.177 209.228 689.688 210.182 686.198 211.206C684.459 211.719 682.716 212.178 680.956 212.629C679.15 213.091 677.213 213.526 675.321 213.595L675.328 213.82C677.168 213.85 678.928 213.877 680.765 213.694C682.504 213.52 684.237 213.181 685.935 212.806C689.556 212.007 693.129 211.059 696.739 210.227C704.023 208.547 711.3 206.869 718.708 205.647C719.048 205.593 718.958 205.089 718.608 205.122Z" fill="#17282F"/>
<path d="M736.899 210.649C730.849 210.16 724.674 209.916 718.592 210.024C715.533 210.081 712.504 210.289 709.462 210.565C708.01 210.7 706.558 210.856 705.113 211.027C703.522 211.213 701.956 211.588 700.362 211.753L700.369 211.984C701.88 211.864 703.419 211.96 704.933 211.918C706.454 211.876 707.975 211.822 709.496 211.78C712.542 211.69 715.588 211.633 718.637 211.522C724.736 211.297 730.807 211.126 736.912 211.084C737.242 211.081 737.214 210.673 736.899 210.649Z" fill="#17282F"/>
<path d="M673.28 119.703C610.686 151.497 553.067 192.163 552.177 211.381C550.981 237.236 580.421 292.801 598.779 320.42C604.178 328.536 676.243 290.895 670.487 282.215C663.529 271.722 626.542 217.946 626.241 216.757C625.589 214.218 674.066 155.348 686.042 141.523C706.039 118.442 701.063 105.593 673.28 119.703Z" fill="#ECA4AA"/>
<path d="M723.131 359.997C717.711 366.174 708.986 363.454 708.986 363.454C708.986 363.454 708.539 369.637 703.445 373.632C697.617 378.209 686.775 372.296 686.775 372.296C686.775 372.296 684.827 378.47 678.961 382.222C672.872 386.118 660.952 381.502 660.952 381.502C660.952 381.502 655.488 386.391 647.729 386.481C634.468 386.64 623.498 371.891 616.415 362.575C609.329 353.261 599.311 321.089 596.685 315.128L665.315 275.233C665.315 275.233 710.802 309.179 717.334 321.155C722.84 331.246 729.216 353.066 723.131 359.997Z" fill="#ECA4AA"/>
<path d="M709.773 362.403C706.89 350.457 700.092 339.904 693.993 329.033L693.563 329.222C699.77 339.97 703.436 351.649 709.139 362.589C709.295 362.892 709.85 362.724 709.773 362.403Z" fill="#17282F"/>
<path d="M687.53 371.584C686.785 368.898 685.021 366.434 683.5 364.033C681.861 361.452 680.17 358.894 678.434 356.355C674.958 351.28 671.355 346.27 667.578 341.36L667.145 341.546C670.599 346.61 673.96 351.718 677.166 356.904C678.767 359.501 680.347 362.109 681.903 364.723C683.351 367.157 684.647 369.832 686.695 371.942C686.996 372.254 687.644 371.987 687.53 371.584Z" fill="#17282F"/>
<path d="M660.812 381.284C660.275 378.927 658.21 376.667 656.765 374.653C655.126 372.372 653.501 370.079 651.893 367.777C648.677 363.179 645.462 358.578 642.433 353.884L642 354.073C645.049 358.854 648.026 363.671 651.124 368.431C652.648 370.77 654.183 373.099 655.736 375.419C657.056 377.397 658.446 379.993 660.556 381.434L660.812 381.284Z" fill="#17282F"/>
<path d="M645.815 243.44L564.824 272.977C564.824 272.977 545.613 222.37 552.686 206.126C559.758 189.882 617.255 144.654 661.449 123.473C705.644 102.289 711.063 115.336 680.646 151.143C650.233 186.953 628.804 215.355 629.331 216.484C629.854 217.609 645.815 243.44 645.815 243.44Z" fill="#F47457"/>
<path d="M632.903 230.123L632.705 229.739C609.163 236.82 586.131 245.386 563.628 254.642L563.825 255.029C587.267 247.727 610.511 239.599 632.903 230.123Z" fill="#17282F"/>
<path d="M645.814 243.441C642.789 239.077 639.871 234.662 636.957 230.244L628.36 216.93L628.041 216.441L628.415 215.954L640.45 200.314C644.445 195.088 648.631 189.974 652.709 184.8C656.774 179.622 660.984 174.523 665.184 169.426C669.359 164.309 673.656 159.275 678.001 154.269C674.231 159.633 670.423 164.966 666.483 170.219C662.575 175.489 658.669 180.763 654.622 185.949C650.589 191.148 646.659 196.403 642.543 201.547L630.241 217.014L630.3 216.038L638.183 229.68C640.765 234.251 643.343 238.819 645.814 243.441Z" fill="#17282F"/>
<path d="M666.417 169.369C667.959 167.394 669.82 165.743 671.739 164.144C673.697 162.577 675.721 161.112 678.001 159.795C677.384 160.872 676.546 161.803 675.69 162.703C674.841 163.615 673.888 164.432 672.921 165.239C670.946 166.803 668.86 168.265 666.417 169.369Z" fill="#17282F"/>
<path d="M701.465 113.73C701.797 116.365 713.582 134.491 727.183 135.37C731.615 135.646 734.453 114.772 734.453 114.772L735.07 113.271L743.673 92.2728L716.687 72.9137L712.761 70.3145C712.761 70.3145 710.841 76.1943 708.54 83.5357C708.43 83.8749 708.322 84.2171 708.211 84.5832C708.069 84.9944 707.927 85.3816 707.816 85.7718C707.456 86.8643 707.092 87.9809 706.759 89.1004C706.499 89.9528 706.243 90.7781 706.011 91.6816C705.748 92.582 705.519 93.4585 705.256 94.3589C702.899 103.279 701.343 112.614 701.465 113.73Z" fill="#ECA4AA"/>
<path d="M708.539 83.5324C713.262 101.466 728.124 110.14 735.068 113.268L743.672 92.2696L716.686 72.9104L712.76 70.3112C712.76 70.3112 710.84 76.191 708.539 83.5324Z" fill="#17282F"/>
<path d="M781.144 55.0702C788.102 93.7106 762.165 101.685 752.546 102.973C743.81 104.147 713.903 107.172 702.371 69.3601C690.842 31.5481 709.384 16.532 729.194 12.9393C749.004 9.34358 774.186 16.4299 781.144 55.0702Z" fill="#ECA4AA"/>
<path d="M771.023 45.2785C769.96 45.3146 768.968 45.1945 767.912 45.1375C766.72 45.0714 765.756 45.1255 764.765 44.4682C764.235 44.114 764.121 43.2676 764.464 42.7903C765.275 41.6738 766.758 41.4397 768.199 41.4667C769.765 41.4968 770.961 41.8689 772.149 42.7454C773.3 43.5948 772.43 45.2275 771.023 45.2785Z" fill="#17282F"/>
<path d="M742.22 52.8246C743.287 52.8426 744.274 52.7045 745.331 52.6295C746.527 52.5455 747.483 52.5814 748.46 51.9091C748.984 51.5489 749.081 50.6996 748.724 50.2254C747.892 49.1208 746.399 48.9138 744.961 48.9648C743.398 49.0218 742.213 49.412 741.042 50.3094C739.908 51.1798 740.813 52.8006 742.22 52.8246Z" fill="#17282F"/>
<path d="M750.317 60.5782L750.133 60.8483C750.778 63.4506 751.006 66.53 748.449 67.8266L748.508 67.9707C751.762 67.0403 751.408 62.9584 750.317 60.5782Z" fill="#17282F"/>
<path d="M747.044 58.2708C742.109 58.712 743.495 67.2241 748.062 66.8159C752.56 66.4137 751.177 57.9016 747.044 58.2708Z" fill="#17282F"/>
<path d="M745.187 58.9493C744.408 59.5376 743.704 60.489 742.686 60.7021C741.504 60.9512 740.458 60.1708 739.532 59.4115L739.38 59.5286C739.616 61.1644 740.617 62.7461 742.672 62.7461C744.55 62.7431 745.638 61.1373 745.839 59.4385C745.88 59.1234 745.503 58.7152 745.187 58.9493Z" fill="#17282F"/>
<path d="M766.9 57.6235L767.17 57.8306C767.478 60.4808 768.345 63.4703 771.235 64.0316L771.231 64.1816C767.804 64.1576 766.699 60.1777 766.9 57.6235Z" fill="#17282F"/>
<path d="M769.197 54.5486C774.049 53.6632 775.736 62.1332 771.242 62.9556C766.817 63.763 765.129 55.2929 769.197 54.5486Z" fill="#17282F"/>
<path d="M771.347 54.8052C772.21 55.1384 773.135 55.8407 774.071 55.7536C775.152 55.6546 775.762 54.6221 776.271 53.6406L776.438 53.7096C776.815 55.3214 776.535 57.0983 774.799 57.6776C773.219 58.2088 771.735 56.9992 770.97 55.4535C770.828 55.1653 771.001 54.6731 771.347 54.8052Z" fill="#17282F"/>
<path d="M753.835 81.398C754.636 81.9593 755.461 82.7547 756.58 82.7427C757.654 82.7337 758.856 82.2145 759.799 81.8063L759.944 81.9323C759.258 83.0128 757.657 83.7872 756.216 83.6912C754.809 83.5951 754.012 82.6136 753.555 81.5421L753.835 81.398Z" fill="#17282F"/>
<path d="M764.868 70.2046C764.868 70.2046 766.185 74.0554 766.514 75.9073C766.546 76.0844 766.04 76.2344 765.319 76.3665L765.239 76.3785C761.549 77.39 757.54 76.7627 754.774 74.3946L755.048 74.0944C758.184 75.5171 761.386 75.5681 764.744 75.1719C764.806 74.6406 762.231 68.6468 762.567 68.5808C763.725 68.3377 766.15 68.7219 767.599 68.8899C765.114 60.8041 761.157 53.1295 758.822 45.0466C758.749 44.7555 759.22 44.6054 759.366 44.8515C764.168 52.6432 767.259 61.8936 770.073 70.1866C770.433 71.2161 765.78 70.4087 764.868 70.2046Z" fill="#17282F"/>
<path d="M702.4 72.3711C710.103 72.134 710.044 58.0993 710.044 58.0993C710.044 58.0993 725.561 56.6196 728.153 36.7952C728.153 36.7952 728.995 45.8205 723.375 53.4441C723.375 53.4441 750.399 48.2546 759.325 27.2986C759.325 27.2986 756.051 37.8487 752.211 41.8616C752.211 41.8616 763.321 37.9657 767.86 29.3486C767.86 29.3486 774.142 40.3218 778.245 43.1222C778.245 43.1222 771.699 1.78058 727.942 10.5327C727.942 10.5327 700.387 14.8488 692.906 34.8623C685.421 54.8698 702.4 72.3711 702.4 72.3711Z" fill="#17282F"/>
<path d="M711.422 70.764C711.422 70.764 701.286 58.7312 694.962 61.8827C688.642 65.0402 696.459 82.6016 704.02 84.8917C711.585 87.1788 714.166 81.158 714.166 81.158L711.422 70.764Z" fill="#ECA4AA"/>
<path d="M697.353 66.8678L697.314 67.0449C702.623 68.8008 705.489 72.9788 707.533 77.3278C705.929 75.668 703.777 74.7795 701.206 76.4393L701.351 76.6825C703.5 76.2413 705.063 76.5414 706.553 78.0091C707.609 79.0506 708.344 80.3772 709.11 81.5868C709.366 81.992 710.212 81.7579 710.021 81.2927L709.976 81.1876C709.973 75.3738 704.57 67.33 697.353 66.8678Z" fill="#17282F"/>
<path d="M734.445 115.154L724.237 131.587L702.372 107.416L694.475 113.725C694.475 113.725 714.143 150.658 714.496 149.109L724.604 135.074L735.086 146.54L737.48 120.541L734.445 115.154Z" fill="white"/>
<path d="M737.106 133.745C737.338 129.441 737.709 125.113 737.705 120.802L737.376 120.73C735.855 124.761 735.075 141.221 734.548 145.138L734.503 145.087C734.067 144.592 724.725 134.945 724.603 135.071C722.521 137.253 715.116 147.47 714.579 148.413C711.471 142.548 699.422 121.151 695.576 115.52L695.261 115.637C697.884 121.766 713.768 150.544 714.073 150.499C714.26 150.655 723.446 138.076 724.666 135.648C726.191 137.703 735.487 148.47 735.605 147.839C736.406 143.577 736.877 138.055 737.106 133.745Z" fill="#17282F"/>
</svg>
