<svg width="664" height="72" viewBox="0 0 664 72" fill="none" xmlns="http://www.w3.org/2000/svg">
<path d="M0.0681818 70V0.181816H27.6136C32.8864 0.181816 37.3864 1.125 41.1136 3.01136C44.8636 4.875 47.7159 7.52273 49.6705 10.9545C51.6477 14.3636 52.6364 18.375 52.6364 22.9886C52.6364 27.625 51.6364 31.6136 49.6364 34.9545C47.6364 38.2727 44.7386 40.8182 40.9432 42.5909C37.1705 44.3636 32.6023 45.25 27.2386 45.25H8.79546V33.3864H24.8523C27.6705 33.3864 30.0114 33 31.875 32.2273C33.7386 31.4545 35.125 30.2955 36.0341 28.75C36.9659 27.2045 37.4318 25.2841 37.4318 22.9886C37.4318 20.6705 36.9659 18.7159 36.0341 17.125C35.125 15.5341 33.7273 14.3295 31.8409 13.5114C29.9773 12.6705 27.625 12.25 24.7841 12.25H14.8295V70H0.0681818ZM37.7727 38.2273L55.125 70H38.8295L21.8523 38.2273H37.7727ZM86.3182 71.0909C81.2727 71.0909 76.9205 69.9773 73.2614 67.75C69.625 65.5 66.8182 62.3636 64.8409 58.3409C62.8864 54.2955 61.9091 49.5909 61.9091 44.2273C61.9091 38.8636 62.8864 34.1364 64.8409 30.0455C66.8182 25.9318 69.5682 22.7273 73.0909 20.4318C76.6364 18.1136 80.7727 16.9545 85.5 16.9545C88.2273 16.9545 90.9205 17.4091 93.5795 18.3182C96.2386 19.2273 98.6591 20.7045 100.841 22.75C103.023 24.7727 104.761 27.4545 106.057 30.7955C107.352 34.1364 108 38.25 108 43.1364V46.5455H67.6364V39.5909H99.8182C99.8182 36.6364 99.2273 34 98.0455 31.6818C96.8864 29.3636 95.2273 27.5341 93.0682 26.1932C90.9318 24.8523 88.4091 24.1818 85.5 24.1818C82.2955 24.1818 79.5227 24.9773 77.1818 26.5682C74.8636 28.1364 73.0795 30.1818 71.8295 32.7045C70.5795 35.2273 69.9545 37.9318 69.9545 40.8182V45.4545C69.9545 49.4091 70.6364 52.7614 72 55.5114C73.3864 58.2386 75.3068 60.3182 77.7614 61.75C80.2159 63.1591 83.0682 63.8636 86.3182 63.8636C88.4318 63.8636 90.3409 63.5682 92.0455 62.9773C93.7727 62.3636 95.2614 61.4545 96.5114 60.25C97.7614 59.0227 98.7273 57.5 99.4091 55.6818L107.182 57.8636C106.364 60.5 104.989 62.8182 103.057 64.8182C101.125 66.7955 98.7386 68.3409 95.8977 69.4545C93.0568 70.5455 89.8636 71.0909 86.3182 71.0909ZM141.511 71.0909C136.602 71.0909 132.375 69.9318 128.83 67.6136C125.284 65.2955 122.557 62.1023 120.648 58.0341C118.739 53.9659 117.784 49.3182 117.784 44.0909C117.784 38.7727 118.761 34.0795 120.716 30.0114C122.693 25.9205 125.443 22.7273 128.966 20.4318C132.511 18.1136 136.648 16.9545 141.375 16.9545C145.057 16.9545 148.375 17.6364 151.33 19C154.284 20.3636 156.705 22.2727 158.591 24.7273C160.477 27.1818 161.648 30.0455 162.102 33.3182H154.057C153.443 30.9318 152.08 28.8182 149.966 26.9773C147.875 25.1136 145.057 24.1818 141.511 24.1818C138.375 24.1818 135.625 25 133.261 26.6364C130.92 28.25 129.091 30.5341 127.773 33.4886C126.477 36.4205 125.83 39.8636 125.83 43.8182C125.83 47.8636 126.466 51.3864 127.739 54.3864C129.034 57.3864 130.852 59.7159 133.193 61.375C135.557 63.0341 138.33 63.8636 141.511 63.8636C143.602 63.8636 145.5 63.5 147.205 62.7727C148.909 62.0455 150.352 61 151.534 59.6364C152.716 58.2727 153.557 56.6364 154.057 54.7273H162.102C161.648 57.8182 160.523 60.6023 158.727 63.0795C156.955 65.5341 154.602 67.4886 151.67 68.9432C148.761 70.375 145.375 71.0909 141.511 71.0909ZM195.136 71.0909C190.409 71.0909 186.261 69.9659 182.693 67.7159C179.148 65.4659 176.375 62.3182 174.375 58.2727C172.398 54.2273 171.409 49.5 171.409 44.0909C171.409 38.6364 172.398 33.875 174.375 29.8068C176.375 25.7386 179.148 22.5795 182.693 20.3295C186.261 18.0795 190.409 16.9545 195.136 16.9545C199.864 16.9545 204 18.0795 207.545 20.3295C211.114 22.5795 213.886 25.7386 215.864 29.8068C217.864 33.875 218.864 38.6364 218.864 44.0909C218.864 49.5 217.864 54.2273 215.864 58.2727C213.886 62.3182 211.114 65.4659 207.545 67.7159C204 69.9659 199.864 71.0909 195.136 71.0909ZM195.136 63.8636C198.727 63.8636 201.682 62.9432 204 61.1023C206.318 59.2614 208.034 56.8409 209.148 53.8409C210.261 50.8409 210.818 47.5909 210.818 44.0909C210.818 40.5909 210.261 37.3295 209.148 34.3068C208.034 31.2841 206.318 28.8409 204 26.9773C201.682 25.1136 198.727 24.1818 195.136 24.1818C191.545 24.1818 188.591 25.1136 186.273 26.9773C183.955 28.8409 182.239 31.2841 181.125 34.3068C180.011 37.3295 179.455 40.5909 179.455 44.0909C179.455 47.5909 180.011 50.8409 181.125 53.8409C182.239 56.8409 183.955 59.2614 186.273 61.1023C188.591 62.9432 191.545 63.8636 195.136 63.8636ZM231.145 70V17.6364H238.918V25.8182H239.599C240.69 23.0227 242.452 20.8523 244.884 19.3068C247.315 17.7386 250.236 16.9545 253.645 16.9545C257.099 16.9545 259.974 17.7386 262.27 19.3068C264.588 20.8523 266.395 23.0227 267.69 25.8182H268.236C269.577 23.1136 271.588 20.9659 274.27 19.375C276.952 17.7614 280.168 16.9545 283.918 16.9545C288.599 16.9545 292.429 18.4205 295.406 21.3523C298.384 24.2614 299.872 28.7955 299.872 34.9545V70H291.827V34.9545C291.827 31.0909 290.77 28.3295 288.656 26.6705C286.543 25.0114 284.054 24.1818 281.19 24.1818C277.509 24.1818 274.656 25.2955 272.634 27.5227C270.611 29.7273 269.599 32.5227 269.599 35.9091V70H261.418V34.1364C261.418 31.1591 260.452 28.7614 258.52 26.9432C256.588 25.1023 254.099 24.1818 251.054 24.1818C248.963 24.1818 247.009 24.7386 245.19 25.8523C243.395 26.9659 241.94 28.5114 240.827 30.4886C239.736 32.4432 239.19 34.7045 239.19 37.2727V70H231.145ZM329.991 71.2273C326.673 71.2273 323.662 70.6023 320.957 69.3523C318.253 68.0795 316.105 66.25 314.514 63.8636C312.923 61.4545 312.128 58.5455 312.128 55.1364C312.128 52.1364 312.719 49.7045 313.901 47.8409C315.082 45.9545 316.662 44.4773 318.639 43.4091C320.616 42.3409 322.798 41.5455 325.185 41.0227C327.594 40.4773 330.014 40.0455 332.446 39.7273C335.628 39.3182 338.207 39.0114 340.185 38.8068C342.185 38.5795 343.639 38.2045 344.548 37.6818C345.48 37.1591 345.946 36.25 345.946 34.9545V34.6818C345.946 31.3182 345.026 28.7045 343.185 26.8409C341.366 24.9773 338.605 24.0455 334.901 24.0455C331.06 24.0455 328.048 24.8864 325.866 26.5682C323.685 28.25 322.151 30.0455 321.264 31.9545L313.628 29.2273C314.991 26.0455 316.81 23.5682 319.082 21.7955C321.378 20 323.878 18.75 326.582 18.0455C329.31 17.3182 331.991 16.9545 334.628 16.9545C336.31 16.9545 338.241 17.1591 340.423 17.5682C342.628 17.9545 344.753 18.7614 346.798 19.9886C348.866 21.2159 350.582 23.0682 351.946 25.5455C353.31 28.0227 353.991 31.3409 353.991 35.5V70H345.946V62.9091H345.537C344.991 64.0455 344.082 65.2614 342.81 66.5568C341.537 67.8523 339.844 68.9545 337.73 69.8636C335.616 70.7727 333.037 71.2273 329.991 71.2273ZM331.219 64C334.401 64 337.082 63.375 339.264 62.125C341.469 60.875 343.128 59.2614 344.241 57.2841C345.378 55.3068 345.946 53.2273 345.946 51.0455V43.6818C345.605 44.0909 344.855 44.4659 343.696 44.8068C342.56 45.125 341.241 45.4091 339.741 45.6591C338.264 45.8864 336.821 46.0909 335.412 46.2727C334.026 46.4318 332.901 46.5682 332.037 46.6818C329.946 46.9545 327.991 47.3977 326.173 48.0114C324.378 48.6023 322.923 49.5 321.81 50.7045C320.719 51.8864 320.173 53.5 320.173 55.5455C320.173 58.3409 321.207 60.4545 323.276 61.8864C325.366 63.2955 328.014 64 331.219 64ZM376.722 38.5V70H368.676V17.6364H376.449V25.8182H377.131C378.358 23.1591 380.222 21.0227 382.722 19.4091C385.222 17.7727 388.449 16.9545 392.403 16.9545C395.949 16.9545 399.051 17.6818 401.71 19.1364C404.369 20.5682 406.438 22.75 407.915 25.6818C409.392 28.5909 410.131 32.2727 410.131 36.7273V70H402.085V37.2727C402.085 33.1591 401.017 29.9545 398.881 27.6591C396.744 25.3409 393.813 24.1818 390.085 24.1818C387.517 24.1818 385.222 24.7386 383.199 25.8523C381.199 26.9659 379.619 28.5909 378.46 30.7273C377.301 32.8636 376.722 35.4545 376.722 38.5ZM444.605 71.0909C440.241 71.0909 436.389 69.9886 433.048 67.7841C429.707 65.5568 427.094 62.4205 425.207 58.375C423.321 54.3068 422.378 49.5 422.378 43.9545C422.378 38.4545 423.321 33.6818 425.207 29.6364C427.094 25.5909 429.719 22.4659 433.082 20.2614C436.446 18.0568 440.332 16.9545 444.741 16.9545C448.151 16.9545 450.844 17.5227 452.821 18.6591C454.821 19.7727 456.344 21.0455 457.389 22.4773C458.457 23.8864 459.287 25.0455 459.878 25.9545H460.56V0.181816H468.605V70H460.832V61.9545H459.878C459.287 62.9091 458.446 64.1136 457.355 65.5682C456.264 67 454.707 68.2841 452.685 69.4205C450.662 70.5341 447.969 71.0909 444.605 71.0909ZM445.696 63.8636C448.923 63.8636 451.651 63.0227 453.878 61.3409C456.105 59.6364 457.798 57.2841 458.957 54.2841C460.116 51.2614 460.696 47.7727 460.696 43.8182C460.696 39.9091 460.128 36.4886 458.991 33.5568C457.855 30.6023 456.173 28.3068 453.946 26.6705C451.719 25.0114 448.969 24.1818 445.696 24.1818C442.287 24.1818 439.446 25.0568 437.173 26.8068C434.923 28.5341 433.23 30.8864 432.094 33.8636C430.98 36.8182 430.423 40.1364 430.423 43.8182C430.423 47.5455 430.991 50.9318 432.128 53.9773C433.287 57 434.991 59.4091 437.241 61.2045C439.514 62.9773 442.332 63.8636 445.696 63.8636ZM483.162 70V0.181816H510.707C516.003 0.181816 520.514 1.19318 524.241 3.21591C527.969 5.21591 530.81 8 532.764 11.5682C534.741 15.1136 535.73 19.2045 535.73 23.8409C535.73 28.4773 534.73 32.5682 532.73 36.1136C530.73 39.6591 527.832 42.4205 524.037 44.3977C520.264 46.375 515.696 47.3636 510.332 47.3636H492.776V35.5341H507.946C510.787 35.5341 513.128 35.0455 514.969 34.0682C516.832 33.0682 518.219 31.6932 519.128 29.9432C520.06 28.1705 520.526 26.1364 520.526 23.8409C520.526 21.5227 520.06 19.5 519.128 17.7727C518.219 16.0227 516.832 14.6705 514.969 13.7159C513.105 12.7386 510.741 12.25 507.878 12.25H497.923V70H483.162ZM554.659 0.181816V70H546.614V0.181816H554.659ZM602.395 48.5909V17.6364H610.44V70H602.395V61.1364H601.849C600.622 63.7955 598.713 66.0568 596.122 67.9205C593.531 69.7614 590.259 70.6818 586.304 70.6818C583.031 70.6818 580.122 69.9659 577.577 68.5341C575.031 67.0795 573.031 64.8977 571.577 61.9886C570.122 59.0568 569.395 55.3636 569.395 50.9091V17.6364H577.44V50.3636C577.44 54.1818 578.509 57.2273 580.645 59.5C582.804 61.7727 585.554 62.9091 588.895 62.9091C590.895 62.9091 592.929 62.3977 594.997 61.375C597.088 60.3523 598.838 58.7841 600.247 56.6705C601.679 54.5568 602.395 51.8636 602.395 48.5909ZM662.267 29.3636L655.04 31.4091C654.585 30.2045 653.915 29.0341 653.028 27.8977C652.165 26.7386 650.983 25.7841 649.483 25.0341C647.983 24.2841 646.062 23.9091 643.722 23.9091C640.517 23.9091 637.847 24.6477 635.71 26.125C633.597 27.5795 632.54 29.4318 632.54 31.6818C632.54 33.6818 633.267 35.2614 634.722 36.4205C636.176 37.5795 638.449 38.5455 641.54 39.3182L649.312 41.2273C653.994 42.3636 657.483 44.1023 659.778 46.4432C662.074 48.7614 663.222 51.75 663.222 55.4091C663.222 58.4091 662.358 61.0909 660.631 63.4545C658.926 65.8182 656.54 67.6818 653.472 69.0455C650.403 70.4091 646.835 71.0909 642.767 71.0909C637.426 71.0909 633.006 69.9318 629.506 67.6136C626.006 65.2955 623.79 61.9091 622.858 57.4545L630.494 55.5455C631.222 58.3636 632.597 60.4773 634.619 61.8864C636.665 63.2955 639.335 64 642.631 64C646.381 64 649.358 63.2045 651.562 61.6136C653.79 60 654.903 58.0682 654.903 55.8182C654.903 54 654.267 52.4773 652.994 51.25C651.722 50 649.767 49.0682 647.131 48.4545L638.403 46.4091C633.608 45.2727 630.085 43.5114 627.835 41.125C625.608 38.7159 624.494 35.7045 624.494 32.0909C624.494 29.1364 625.324 26.5227 626.983 24.25C628.665 21.9773 630.949 20.1932 633.835 18.8977C636.744 17.6023 640.04 16.9545 643.722 16.9545C648.903 16.9545 652.972 18.0909 655.926 20.3636C658.903 22.6364 661.017 25.6364 662.267 29.3636Z" fill="#fff"/>
</svg>
