<svg width="100" height="100" viewBox="0 0 100 100" fill="none" xmlns="http://www.w3.org/2000/svg">
<path fill-rule="evenodd" clip-rule="evenodd" d="M0 20C0 8.9543 8.9543 0 20 0H80C91.0455 0 100 8.9543 100 20V80C100 91.0455 91.0455 100 80 100H20C8.9543 100 0 91.0455 0 80V20ZM20 10C14.4771 10 10 14.4771 10 20V80C10 85.523 14.4771 90 20 90H50V55H45C42.2385 55 40 52.7615 40 50C40 47.2385 42.2385 45 45 45H50V37.5C50 27.835 57.835 20 67.5 20H70.5C73.2615 20 75.5 22.2386 75.5 25C75.5 27.7614 73.2615 30 70.5 30H67.5C63.358 30 60 33.3579 60 37.5V45H70.5C73.2615 45 75.5 47.2385 75.5 50C75.5 52.7615 73.2615 55 70.5 55H60V90H80C85.523 90 90 85.523 90 80V20C90 14.4771 85.523 10 80 10H20Z" fill="#666666"/>
</svg>
