<svg width="74" height="100" viewBox="0 0 74 100" fill="none" xmlns="http://www.w3.org/2000/svg">
<path fill-rule="evenodd" clip-rule="evenodd" d="M73.6859 64.6328C72.8639 84.2637 56.6957 99.9281 36.8628 99.9281C16.5039 99.9281 2.58766e-05 82.8692 2.58766e-05 63.0653C2.58766e-05 60.4183 -0.0474253 55.1281 3.92159 46.2026C6.29689 40.861 7.78669 37.5053 8.62748 34.4379C9.08944 32.752 9.98787 30.0736 12.549 34.4379C14.0592 37.0112 14.1177 40.7124 14.1177 40.7124C14.1177 40.7124 19.7365 36.4006 23.5294 28.1634C29.0898 16.0877 24.6534 8.86924 23.1373 3.84963C22.6126 2.11316 22.2832 -1.00763 25.8824 0.320218C29.5498 1.67355 39.2455 8.46061 44.3138 15.6143C51.5471 25.8241 54.1177 35.6143 54.1177 35.6143C54.1177 35.6143 56.4338 32.7398 57.2549 29.732C58.1824 26.3355 58.1961 22.9716 61.1761 26.5951C64.0102 30.041 68.2192 36.5167 70.5883 42.6732C74.8898 53.8532 73.6859 64.6328 73.6859 64.6328Z" fill="url(#paint0_linear_670_121)"/>
<path fill-rule="evenodd" clip-rule="evenodd" d="M36.8632 99.9271C22.7852 99.9271 11.373 88.515 11.373 74.4369C11.373 65.9424 14.7962 60.7852 21.9205 53.7915C26.4821 49.3134 30.7515 43.8134 32.566 40.0683C32.9232 39.3311 33.7362 35.4891 36.8707 39.9875C38.515 42.3467 41.0927 46.5424 42.7456 50.1232C45.595 56.2969 46.275 62.2801 46.275 62.2801C46.275 62.2801 49.0676 60.6346 50.9809 56.3977C51.5978 55.0322 52.8448 49.8628 56.3311 55.0315C58.8891 58.8244 62.4032 65.644 62.3534 74.4369C62.3534 88.515 50.9409 99.9271 36.8632 99.9271Z" fill="#FC9502"/>
<path fill-rule="evenodd" clip-rule="evenodd" d="M37.2547 72.084C40.8821 72.084 40.8821 78.8012 45.49 87.7703C48.5582 93.7424 43.9688 99.9271 37.2547 99.9271C30.5406 99.9271 27.0586 94.4844 27.0586 87.7703C27.0586 81.0565 33.6272 72.084 37.2547 72.084Z" fill="#FCE202"/>
<defs>
<linearGradient id="paint0_linear_670_121" x1="36.9181" y1="100.002" x2="36.9181" y2="0.0755111" gradientUnits="userSpaceOnUse">
<stop stop-color="#FF4C0D"/>
<stop offset="1" stop-color="#FC9502"/>
</linearGradient>
</defs>
</svg>
