<svg width="100" height="100" viewBox="0 0 100 100" fill="none" xmlns="http://www.w3.org/2000/svg">
<path fill-rule="evenodd" clip-rule="evenodd" d="M50 75C63.8071 75 75 63.8071 75 50C75 36.1929 63.8071 25 50 25C36.1929 25 25 36.1929 25 50C25 63.8071 36.1929 75 50 75ZM50 66.6667C59.2046 66.6667 66.6667 59.2046 66.6667 50C66.6667 40.7952 59.2046 33.3333 50 33.3333C40.7952 33.3333 33.3333 40.7952 33.3333 50C33.3333 59.2046 40.7952 66.6667 50 66.6667Z" fill="#666666"/>
<path d="M74.9987 20.834C72.6974 20.834 70.832 22.6995 70.832 25.0007C70.832 27.3018 72.6974 29.1673 74.9987 29.1673C77.2999 29.1673 79.1654 27.3018 79.1654 25.0007C79.1654 22.6995 77.2999 20.834 74.9987 20.834Z" fill="#666666"/>
<path fill-rule="evenodd" clip-rule="evenodd" d="M6.8928 17.8163C4.16797 23.1641 4.16797 30.1647 4.16797 44.166V55.8327C4.16797 69.8339 4.16797 76.8348 6.8928 82.1823C9.28964 86.8864 13.1141 90.711 17.8182 93.1077C23.166 95.8327 30.1667 95.8327 44.168 95.8327H55.8346C69.8359 95.8327 76.8367 95.8327 82.1842 93.1077C86.8884 90.711 90.713 86.8864 93.1096 82.1823C95.8346 76.8348 95.8346 69.8339 95.8346 55.8327V44.166C95.8346 30.1647 95.8346 23.1641 93.1096 17.8163C90.713 13.1122 86.8884 9.28768 82.1842 6.89085C76.8367 4.16602 69.8359 4.16602 55.8346 4.16602H44.168C30.1667 4.16602 23.166 4.16602 17.8182 6.89085C13.1141 9.28768 9.28964 13.1122 6.8928 17.8163ZM55.8346 12.4993H44.168C37.0298 12.4993 32.1773 12.5058 28.4266 12.8123C24.7731 13.1108 22.9048 13.6518 21.6015 14.3159C18.4654 15.9138 15.9158 18.4635 14.3178 21.5995C13.6538 22.9028 13.1127 24.7712 12.8142 28.4247C12.5078 32.1754 12.5013 37.0278 12.5013 44.166V55.8327C12.5013 62.971 12.5078 67.8231 12.8142 71.5739C13.1127 75.2277 13.6538 77.096 14.3178 78.3993C15.9158 81.5352 18.4654 84.0848 21.6015 85.6827C22.9048 86.3468 24.7731 86.8881 28.4266 87.1864C32.1773 87.4927 37.0298 87.4993 44.168 87.4993H55.8346C62.973 87.4993 67.8251 87.4927 71.5759 87.1864C75.2296 86.8881 77.098 86.3468 78.4013 85.6827C81.5371 84.0848 84.0867 81.5352 85.6846 78.3993C86.3488 77.096 86.89 75.2277 87.1884 71.5739C87.4946 67.8231 87.5013 62.971 87.5013 55.8327V44.166C87.5013 37.0278 87.4946 32.1754 87.1884 28.4247C86.89 24.7712 86.3488 22.9028 85.6846 21.5995C84.0867 18.4635 81.5371 15.9138 78.4013 14.3159C77.098 13.6518 75.2296 13.1108 71.5759 12.8123C67.8251 12.5058 62.973 12.4993 55.8346 12.4993Z" fill="#666666"/>
</svg>
