<svg width="140" height="140" viewBox="0 0 140 140" fill="none" xmlns="http://www.w3.org/2000/svg">
<path fill-rule="evenodd" clip-rule="evenodd" d="M69.9995 93.337C57.217 93.337 46.8612 82.8926 46.8612 70.0028C46.8612 57.1129 57.217 46.6685 69.9995 46.6685C82.782 46.6685 93.1424 57.1129 93.1424 70.0028C93.1424 82.8926 82.782 93.337 69.9995 93.337ZM135.373 86.5048L124.532 80.1951C125.138 76.8817 125.54 73.4983 125.54 70.0028C125.54 66.512 125.138 63.1239 124.532 59.8104L135.373 53.5007C139.802 50.9246 141.314 45.2124 138.756 40.7509L129.502 24.585C126.949 20.1235 121.284 18.5881 116.859 21.1689L105.906 27.5391C100.791 23.1523 94.9765 19.5634 88.5129 17.2533V9.3337C88.5129 4.1815 84.3687 0 79.2539 0H60.7451C55.6303 0 51.4861 4.1815 51.4861 9.3337V17.2533C45.0225 19.5634 39.2076 23.1523 34.0927 27.5391L23.1396 21.1689C18.7155 18.5881 13.0499 20.1235 10.4971 24.585L1.24277 40.7509C-1.31467 45.2124 0.202051 50.9246 4.62623 53.5007L15.4673 59.8104C14.8607 63.1239 14.4593 66.512 14.4593 70.0028C14.4593 73.4983 14.8607 76.8817 15.4673 80.1951L4.62623 86.5048C0.202051 89.0809 -1.31467 94.7931 1.24277 99.2546L10.4971 115.421C13.0499 119.882 18.7155 121.417 23.1396 118.837L34.0927 112.466C39.2076 116.853 45.0225 120.447 51.4861 122.752V130.672C51.4861 135.824 55.6303 140.006 60.7451 140.006H79.2539C84.3687 140.006 88.5129 135.824 88.5129 130.672V122.752C94.9765 120.447 100.791 116.853 105.906 112.466L116.859 118.837C121.284 121.417 126.949 119.882 129.502 115.421L138.756 99.2546C141.314 94.7931 139.802 89.0809 135.373 86.5048ZM69.9995 56.0022C62.3319 56.0022 56.1156 62.2745 56.1156 70.0028C56.1156 77.7358 62.3319 84.0033 69.9995 84.0033C77.6671 84.0033 83.8834 77.7358 83.8834 70.0028C83.8834 62.2745 77.6671 56.0022 69.9995 56.0022Z" fill="black"/>
</svg>
