<svg width="200" height="134" viewBox="0 0 200 134" fill="none" xmlns="http://www.w3.org/2000/svg">
<path d="M200 133.273H0V0.000717163H200V133.273Z" fill="white"/>
<path d="M166.95 99.8692C166.792 99.9065 166.622 99.9465 166.442 99.9892C166.262 100.032 166.076 100.088 165.881 100.142C165.491 100.254 165.066 100.367 164.634 100.516C164.375 100.601 164.11 100.688 163.843 100.781C164.219 100.362 164.581 99.9501 164.904 99.5692C165.113 99.3228 165.305 99.0901 165.474 98.8765C166.543 99.2083 167.46 99.4583 168.175 99.641L167.756 99.6965C167.54 99.7319 167.268 99.7974 166.95 99.8692ZM157.937 103.629C157.706 103.768 157.484 103.92 157.255 104.062L156.571 104.49C156.345 104.637 156.118 104.782 155.89 104.925C155.361 105.259 154.745 105.666 154.073 106.14C154.698 105.452 155.521 104.557 156.441 103.565C156.999 102.964 157.592 102.326 158.196 101.675C158.499 101.35 158.805 101.023 159.11 100.695C159.263 100.531 159.415 100.367 159.568 100.204L159.796 99.9592L159.845 99.911C159.96 99.7956 160.061 99.6956 160.144 99.6174C160.153 99.6065 160.165 99.5974 160.18 99.5992C160.195 99.601 160.21 99.6119 160.218 99.6274C160.235 99.661 160.208 99.6974 160.199 99.7292C160.175 99.7892 160.153 99.8474 160.132 99.9019C160.125 99.9174 160.124 99.9219 160.121 99.9274L160.113 99.9447C160.108 99.9538 160.103 99.9628 160.098 99.9719C160.095 99.9792 160.091 99.9865 160.087 99.9928L160.085 99.9947L160.079 100.015C160.068 100.046 160.058 100.076 160.047 100.107C160.008 100.225 159.97 100.339 159.934 100.45C159.63 101.364 159.399 102.056 159.263 102.466C159.245 102.542 159.225 102.616 159.213 102.68C159.208 102.736 159.205 102.789 159.2 102.839C159.199 102.847 159.199 102.854 159.199 102.861C158.988 102.978 158.793 103.092 158.623 103.203C158.395 103.346 158.166 103.489 157.937 103.629ZM145.389 114.318C145.415 114.208 145.443 114.1 145.47 113.988C145.524 113.771 145.577 113.55 145.633 113.328C145.66 113.216 145.687 113.106 145.715 112.993C145.738 112.906 145.765 112.82 145.79 112.734C145.795 112.747 145.797 112.761 145.803 112.775C145.885 113.006 146.028 113.192 146.205 113.326C145.925 113.656 145.654 113.986 145.389 114.318ZM154.457 98.6719C153.768 99.6265 153.085 100.587 152.414 101.556C151.595 102.696 150.565 104.163 149.477 105.813C148.41 107.438 147.28 109.232 146.279 111.086C146.836 109.346 147.508 107.585 148.295 105.983C148.399 105.776 148.503 105.568 148.605 105.364C148.655 105.259 148.709 105.161 148.765 105.062C148.819 104.964 148.875 104.865 148.928 104.767C149.038 104.572 149.142 104.375 149.255 104.186C149.368 104.001 149.481 103.816 149.593 103.635C149.701 103.45 149.82 103.281 149.935 103.11L150.02 102.983C150.062 102.921 150.104 102.86 150.145 102.799C150.202 102.72 150.264 102.643 150.326 102.567C150.389 102.49 150.451 102.415 150.512 102.338C150.635 102.187 150.757 102.037 150.878 101.888L150.968 101.777L151.066 101.667C151.132 101.594 151.197 101.521 151.262 101.449C151.519 101.164 151.758 100.871 152.02 100.609C153.397 99.231 154.457 98.6719 154.457 98.6719ZM146.047 92.7176C146.06 92.7215 146.073 92.7255 146.086 92.7302C146.184 92.7515 146.27 92.7773 146.398 92.7852C146.429 92.7872 146.454 92.7932 146.489 92.7919L146.595 92.7888C146.66 92.7919 146.748 92.7713 146.827 92.7588C146.999 92.7183 147.196 92.6288 147.384 92.5541C148.005 92.3013 148.597 92.0609 149.161 91.832C149.329 91.7643 149.493 91.6983 149.652 91.6338C149.681 91.6228 149.708 91.6122 149.735 91.6018C149.836 91.5664 149.918 91.5318 149.983 91.5215C149.995 91.5292 150.005 91.5368 150.016 91.5445C150.017 91.5453 150.018 91.5461 150.02 91.5468C150.022 91.5548 150.023 91.5635 150.02 91.5722C150.014 91.5957 149.992 91.6109 149.977 91.6281C149.948 91.6588 149.919 91.6882 149.892 91.7163C149.841 91.7675 149.801 91.8033 149.77 91.8273C149.521 92.1328 149.29 92.4163 149.068 92.6884C148.952 92.8327 148.837 92.9739 148.725 93.1136C148.545 93.3407 148.368 93.5651 148.191 93.789C147.874 94.1924 147.558 94.5968 147.24 95.0075L147.239 95.007C146.95 94.5116 146.581 93.8451 146.192 93.0258C146.144 92.9253 146.095 92.8225 146.047 92.7176ZM144.99 90.1598C144.888 89.8913 144.794 89.6131 144.693 89.3319C144.67 89.2641 144.647 89.196 144.624 89.1278L144.591 89.0458C144.569 88.9873 144.546 88.9285 144.524 88.8693C144.434 88.6273 144.342 88.3575 144.252 88.0656C144.162 87.7738 144.074 87.4603 143.992 87.1344C143.951 86.9715 143.913 86.8055 143.876 86.638C143.872 86.6177 143.865 86.5951 143.875 86.5759C143.884 86.5572 143.904 86.5458 143.922 86.5476C143.941 86.5489 143.953 86.5654 143.966 86.5761L144.007 86.6118L144.172 86.7581C144.433 86.9875 144.694 87.2486 144.949 87.4767C145.083 87.5998 145.212 87.7219 145.335 87.8409C145.395 87.8998 145.456 87.9583 145.516 88.0167L145.694 88.1804L145.778 88.2593L145.82 88.2981L145.922 88.3858C146.06 88.5043 146.199 88.6228 146.337 88.7416C146.476 88.8603 146.615 88.9793 146.755 89.0988C146.763 89.1051 146.77 89.1109 146.778 89.1172C146.756 89.1529 146.735 89.1896 146.714 89.2249C146.318 89.8821 145.947 90.497 145.611 91.0547C145.537 91.1816 145.497 91.2928 145.472 91.3944C145.31 91.0017 145.149 90.5898 144.99 90.1598ZM147.139 91.0267C147.155 90.9886 147.178 90.9562 147.195 90.9225C147.273 90.7868 147.336 90.6733 147.387 90.5841C147.397 90.5668 147.4 90.5628 147.402 90.5588C147.466 90.4473 147.526 90.3398 147.584 90.2336C147.598 90.2068 147.613 90.1804 147.626 90.1543L147.637 90.1345L147.657 90.0993C147.67 90.0756 147.684 90.0521 147.696 90.0288C147.721 89.9849 147.745 89.9437 147.768 89.9011C147.87 89.981 147.972 90.0608 148.075 90.1417C148.28 90.3009 148.486 90.4634 148.701 90.6219C148.672 90.634 148.642 90.6467 148.613 90.6587C148.485 90.7114 148.361 90.7632 148.239 90.8139C148.181 90.8388 148.125 90.8631 148.068 90.8869C147.836 90.9867 147.625 91.078 147.434 91.16C147.384 91.1784 147.337 91.2099 147.285 91.2113C147.234 91.2139 147.187 91.1864 147.16 91.15C147.132 91.1129 147.125 91.0657 147.139 91.0267ZM152.975 93.3818C152.454 93.6276 151.925 93.8773 151.375 94.1367C150.996 94.3188 150.608 94.5058 150.205 94.6994C150.06 94.7692 149.913 94.842 149.753 94.9241C149.641 94.9812 149.53 95.0381 149.421 95.0941C149.365 95.1221 149.31 95.1522 149.254 95.1785C149.195 95.2039 149.125 95.1676 149.106 95.1137C149.095 95.0873 149.097 95.0571 149.11 95.0333C149.124 95.0098 149.142 94.9897 149.157 94.9678C149.189 94.9247 149.221 94.8825 149.251 94.8412C149.315 94.7568 149.374 94.6766 149.429 94.602C149.525 94.4751 149.619 94.3497 149.712 94.2258C149.929 93.9423 150.144 93.6624 150.355 93.3867C150.625 93.0356 150.891 92.6898 151.152 92.3498C151.164 92.3345 151.175 92.3196 151.187 92.3044C151.642 92.5839 152.095 92.8627 152.545 93.1394C152.689 93.2205 152.832 93.301 152.975 93.3818ZM153.684 97.3857C153.728 97.3158 153.788 97.2268 153.866 97.117C154.022 96.8984 154.251 96.5936 154.543 96.2205C154.618 96.1243 154.695 96.0273 154.772 95.9298L154.894 95.7768C154.981 95.6698 155.069 95.5627 155.157 95.4552C155.325 95.2533 155.495 95.0503 155.663 94.8477C155.828 94.9332 155.994 95.0188 156.157 95.1035C156.27 95.1613 156.382 95.2198 156.495 95.2771C156.483 95.2856 156.471 95.2939 156.46 95.3019L156.454 95.3072L156.428 95.3286L156.378 95.3709C156.345 95.3991 156.311 95.427 156.278 95.4546C155.748 95.8977 155.301 96.2623 155.142 96.3738C155.025 96.4567 154.891 96.5657 154.695 96.743C154.586 96.8398 154.462 96.9518 154.323 97.0771C154.249 97.143 154.171 97.2124 154.089 97.2849C154.047 97.3222 154.005 97.3602 153.961 97.3991C153.916 97.4363 153.869 97.4849 153.831 97.5076C153.745 97.5616 153.637 97.5225 153.634 97.4798C153.638 97.4475 153.664 97.422 153.684 97.3857ZM150.185 99.1038C150.145 99.0683 150.107 99.0328 150.069 98.9974C150.029 98.9601 149.988 98.9219 149.948 98.8847C149.909 98.8465 149.874 98.8083 149.837 98.771C149.745 98.6756 149.655 98.5828 149.567 98.4918C149.498 98.4132 149.431 98.3361 149.365 98.2608C149.301 98.1849 149.235 98.1133 149.175 98.039C149.115 97.9631 149.056 97.889 149 97.8169C148.944 97.7448 148.888 97.6748 148.835 97.6067C148.783 97.537 148.735 97.4665 148.686 97.3998C148.636 97.3277 148.587 97.2595 148.54 97.1931C148.563 97.1822 148.585 97.1715 148.607 97.1606C148.809 97.0617 149.016 96.9605 149.227 96.8571C149.651 96.65 150.092 96.4344 150.549 96.2108C151.532 95.7315 152.652 95.1848 153.856 94.5973L153.964 94.5448L153.986 94.5338L153.988 94.5331L153.995 94.5303L154.008 94.5251L154.032 94.516L154.052 94.5088C154.057 94.5031 154.069 94.511 154.06 94.5213L154.024 94.5584L154.016 94.5654L154.013 94.5687L154.011 94.5701L154.01 94.5708L153.972 94.6168C153.573 95.089 153.175 95.5603 152.779 96.0295C151.903 97.0671 151.035 98.0951 150.185 99.1038ZM159.642 96.7226C159.873 96.8198 160.101 96.9179 160.326 97.0139C158.053 99.4583 153.681 104.16 150.257 107.842C150.515 107.426 150.787 106.99 151.074 106.542C152.218 104.744 153.583 102.736 154.948 100.803C155.632 99.8374 156.316 98.891 156.973 97.9987C157.31 97.5428 157.639 97.0992 157.955 96.6726C158.065 96.5193 158.145 96.2828 158.133 96.0543C158.641 96.2921 159.143 96.52 159.642 96.7226ZM164.524 98.5719C164.012 98.9438 163.369 99.4365 162.574 100.07L162.079 100.505L161.955 100.613L161.894 100.667C161.885 100.673 161.884 100.673 161.878 100.676C161.859 100.684 161.842 100.69 161.826 100.695C161.771 100.72 161.711 100.75 161.678 100.756C161.669 100.757 161.665 100.762 161.655 100.756C161.645 100.75 161.636 100.721 161.65 100.697C161.667 100.663 161.685 100.627 161.703 100.592C161.703 100.605 161.699 100.623 161.695 100.642C161.868 100.11 162.037 99.591 162.199 99.0965C162.302 98.7765 162.403 98.4642 162.5 98.1619C162.528 98.0723 162.559 97.9801 162.585 97.895C163.265 98.146 163.914 98.371 164.524 98.5719ZM83.2231 82.2439L82.9993 81.8354C82.8463 81.5649 82.7126 81.2856 82.5703 81.0108C82.3004 80.4544 82.0423 79.8943 81.8189 79.3239C81.5859 78.757 81.3924 78.1794 81.207 77.6037C81.0364 77.0239 80.8731 76.4454 80.752 75.8627C80.6192 75.2817 80.5277 74.6976 80.448 74.1297C80.4329 73.986 80.4178 73.8427 80.4028 73.6997C80.3884 73.5567 80.3697 73.4145 80.3632 73.2711C80.3461 72.985 80.3204 72.7011 80.318 72.4168C80.2837 71.2818 80.349 70.1658 80.5013 69.0954C80.8109 66.953 81.4529 65.0015 82.2489 63.3658C82.6463 62.5468 83.0812 61.8047 83.5266 61.1427C83.9734 60.4811 84.4379 59.9067 84.8813 59.404C85.7936 58.3806 86.8282 57.4818 87.9618 56.7478L88.39 56.4778L88.83 56.2291C88.9754 56.1425 89.1273 56.0697 89.2773 55.9944C89.4282 55.9215 89.5773 55.8374 89.7291 55.773C90.3327 55.4962 90.9618 55.2644 91.6063 55.0851C92.3382 54.8755 93.1936 54.7124 94.14 54.6429C95.0854 54.5762 96.1263 54.6146 97.1909 54.8338C98.2536 55.0542 99.3436 55.4494 100.329 56.0956C100.578 56.2527 100.815 56.4337 101.05 56.6197C101.163 56.7202 101.276 56.8214 101.39 56.923C101.446 56.9745 101.506 57.0222 101.561 57.0768L101.722 57.2448C102.163 57.6805 102.551 58.1957 102.906 58.7511C103.267 59.3037 103.563 59.9232 103.822 60.5719C104.085 61.2199 104.281 61.9148 104.433 62.6307L104.489 62.9001L104.516 63.0353L104.537 63.1723C104.566 63.3552 104.595 63.5386 104.624 63.7224C104.662 64.0936 104.71 64.4658 104.725 64.8441L104.742 65.1274C104.747 65.222 104.745 65.3171 104.747 65.4121C104.747 65.6021 104.757 65.7928 104.751 65.9836C104.745 66.1745 104.739 66.3658 104.733 66.5574C104.723 66.7499 104.705 66.9445 104.692 67.1385C104.437 70.2472 103.337 73.3711 101.655 76.1219C100.823 77.5036 99.8445 78.7925 98.7872 79.98C98.2591 80.5741 97.7036 81.1368 97.1363 81.6758C96.8545 81.9467 96.5627 82.2047 96.2745 82.4626C95.98 82.7135 95.6891 82.9658 95.3891 83.2031C94.7936 83.683 94.19 84.137 93.5763 84.5553C93.4245 84.6627 93.2709 84.7648 93.1163 84.8653C92.9618 84.9649 92.8127 85.0707 92.6545 85.1644C92.3409 85.356 92.03 85.5458 91.7227 85.7338C91.6454 85.7804 91.5691 85.8291 91.4918 85.8734C91.4127 85.917 91.3345 85.9606 91.2563 86.0039C91.1 86.0908 90.9445 86.1772 90.79 86.2631C90.6354 86.3492 90.4809 86.4348 90.3282 86.5198C90.1754 86.6051 90.0173 86.6791 89.8627 86.7587C89.5536 86.9151 89.2473 87.0697 88.9454 87.2223C88.6373 87.3638 88.3327 87.5034 88.0327 87.6412C87.8827 87.7096 87.7345 87.7798 87.5854 87.8454C87.5518 87.8593 87.5191 87.873 87.4854 87.887C85.9609 86.3132 84.58 84.5489 83.4586 82.6468L83.2231 82.2439ZM174.045 100.075C174.419 99.8701 174.488 99.5774 174.425 99.2838C174.291 98.6838 173.607 98.18 172.802 98.0496C169.622 97.491 167.182 96.7528 165.247 96.0804C164.765 95.9072 164.31 95.7464 163.884 95.5858C163.463 95.4116 163.067 95.2477 162.694 95.0929C162.508 95.0145 162.327 94.9383 162.152 94.8643C162.064 94.827 161.977 94.7903 161.892 94.7541C161.808 94.7146 161.726 94.6756 161.645 94.637C161.32 94.4818 161.014 94.3356 160.724 94.1967C160.434 94.0562 160.16 93.9233 159.899 93.7965C159.643 93.6591 159.399 93.5283 159.165 93.4026C158.696 93.1517 158.265 92.9209 157.85 92.698C157.639 92.5773 157.432 92.4602 157.224 92.3451C157.215 92.2883 157.192 92.2248 157.155 92.1671C157.093 92.0677 156.995 91.9835 156.908 91.953C156.865 91.9349 156.83 91.9346 156.799 91.937L156.705 91.9479C156.645 91.9543 156.585 91.9608 156.525 91.9671C156.355 91.8772 156.183 91.7878 156.005 91.6981C155.795 91.5822 155.578 91.4648 155.353 91.3461C155.175 91.2406 154.828 91.0346 154.312 90.7284C154.051 90.5814 153.763 90.3847 153.425 90.1728C153.091 89.9588 152.714 89.7185 152.296 89.4518C151.885 89.1758 151.44 88.862 150.951 88.5265C150.828 88.4423 150.704 88.3564 150.577 88.2688C150.514 88.2248 150.449 88.1804 150.385 88.1356C150.322 88.0885 150.258 88.0408 150.194 87.9928C149.936 87.8009 149.669 87.6017 149.393 87.3952C149.254 87.2904 149.111 87.1854 148.966 87.0779C148.964 86.8524 148.855 86.7841 148.708 86.7971C148.679 86.7996 148.649 86.8063 148.619 86.8148C148.591 86.7935 148.564 86.7727 148.535 86.7509C148.247 86.5191 147.95 86.2796 147.644 86.0325C147.487 85.9069 147.329 85.7805 147.17 85.6531C147.091 85.5893 147.011 85.5252 146.931 85.4609C146.852 85.3928 146.773 85.3245 146.693 85.2559C146.534 85.1182 146.374 84.9796 146.212 84.8398C146.05 84.6981 145.886 84.5454 145.722 84.397C145.063 83.7976 144.385 83.1807 143.687 82.5464C143.493 82.435 143.293 82.3206 143.088 82.2033C143.036 82.174 142.985 82.1445 142.933 82.1148L142.855 82.0702C142.832 82.0582 142.795 82.0318 142.79 82.0399C142.741 82.0431 142.691 82.0464 142.641 82.0497C142.441 82.0638 142.233 82.0787 142.016 82.0939C141.909 82.1022 141.799 82.1106 141.688 82.1191C141.633 82.1236 141.576 82.128 141.52 82.1325L141.435 82.1394L141.393 82.1428C141.378 82.1435 141.373 82.15 141.351 82.1598C141.313 82.1796 141.251 82.2156 141.206 82.2448C141.159 82.2759 141.151 82.2839 141.13 82.2998C141.093 82.3278 141.055 82.3584 141.015 82.3937L140.957 82.445L140.898 82.5055L140.839 82.5663C140.819 82.5873 140.799 82.6154 140.779 82.6397L140.72 82.7153C140.7 82.7407 140.68 82.7638 140.661 82.7988C140.623 82.8632 140.585 82.9278 140.546 82.9928C140.525 83.0208 140.51 83.0668 140.495 83.1097L140.445 83.2388C140.416 83.33 140.371 83.3943 140.367 83.5322C140.355 83.6542 140.343 83.7767 140.33 83.8994L140.32 83.9916C140.321 84.0264 140.333 84.0744 140.338 84.1153L140.379 84.3708C140.407 84.5418 140.435 84.7132 140.464 84.8849C140.5 85.066 140.536 85.2474 140.574 85.4291C140.87 86.8857 141.264 88.4592 141.722 90.0108C142.204 91.6294 142.763 93.208 143.367 94.6019C143.962 95.9979 144.609 97.2059 145.162 98.1032C145.635 98.8501 146.159 99.581 146.758 100.278C146.806 100.333 146.854 100.386 146.902 100.44C145.027 100.484 142.545 100.545 139.356 100.531C138.732 100.556 138.106 100.561 137.481 100.569L136.544 100.582L135.606 100.578C133.483 100.604 129.027 100.657 124.373 100.373C122.046 100.238 119.669 100.046 117.508 99.8156C115.348 99.591 113.412 99.3292 111.947 99.1201C110.665 98.9456 109.395 98.7119 108.129 98.4564C106.869 98.1792 105.612 97.8841 104.382 97.5114C102.932 97.0834 101.239 96.5279 99.4163 95.774C97.5936 95.0233 95.6445 94.062 93.6982 92.869C92.73 92.2714 91.7645 91.6066 90.8227 90.8726C90.5809 90.6843 90.3409 90.4919 90.1018 90.2956L90.3527 90.1798L90.6227 90.0435L91.1627 89.7705L91.7018 89.4972C91.8809 89.4043 92.0554 89.3026 92.2327 89.2056L92.7627 88.911C92.9382 88.8106 93.1182 88.7196 93.2891 88.6107L94.3254 87.9777C94.4991 87.8747 94.6682 87.7607 94.8391 87.6488C95.0091 87.5361 95.1809 87.4267 95.3473 87.3088C98.0373 85.4671 100.461 83.2372 102.488 80.6639C104.51 78.0934 106.135 75.1611 107.098 71.9754C107.424 70.9396 107.701 69.8041 107.886 68.5834C107.935 68.2786 107.967 67.967 108.008 67.6528C108.035 67.3362 108.069 67.0186 108.087 66.6914C108.095 66.5273 108.103 66.3623 108.11 66.1963C108.114 66.1133 108.117 66.03 108.121 65.9466C108.121 65.863 108.121 65.7792 108.121 65.6951C108.121 65.527 108.121 65.358 108.121 65.188C108.123 65.0181 108.108 64.8472 108.102 64.6755C108.038 63.3026 107.837 61.869 107.402 60.4277C107.346 60.2477 107.291 60.0672 107.235 59.8859C107.17 59.7069 107.104 59.5273 107.038 59.3469L106.937 59.0763C106.903 58.9864 106.861 58.8979 106.823 58.8086C106.745 58.6303 106.666 58.4514 106.588 58.2718C106.504 58.0944 106.41 57.9194 106.32 57.7424L106.183 57.4774C106.136 57.389 106.082 57.3042 106.032 57.2174C105.928 57.0449 105.824 56.8719 105.72 56.6984C105.608 56.5287 105.489 56.3622 105.373 56.1938L105.196 55.9417C105.133 55.8599 105.067 55.7799 105.003 55.6989C104.872 55.5378 104.742 55.3755 104.609 55.2152C104.465 55.0623 104.323 54.9089 104.178 54.7553C104.105 54.6797 104.036 54.6001 103.959 54.5278L103.725 54.3127C103.566 54.1707 103.413 54.0232 103.248 53.8866C103.081 53.7528 102.916 53.6141 102.741 53.4899L102.48 53.2998L102.212 53.1202C102.035 52.9974 101.847 52.8917 101.663 52.7785C100.917 52.3447 100.124 51.9941 99.3063 51.7204C98.4873 51.4539 97.6445 51.2615 96.7945 51.1499C95.0936 50.9274 93.3663 51.0009 91.6945 51.3371C90.8573 51.5045 90.0336 51.736 89.2327 52.0351C88.8309 52.181 88.4372 52.3502 88.0482 52.5282C87.6682 52.7164 87.2845 52.8964 86.92 53.1098C86.5463 53.3089 86.1936 53.5404 85.8363 53.763C85.4918 54.0033 85.1391 54.234 84.8128 54.4952L84.5643 54.6865L84.4403 54.7823L84.3209 54.8829C84.1619 55.0177 84.0031 55.1522 83.8445 55.2866C83.6881 55.4231 83.5391 55.5671 83.3866 55.7071L83.1601 55.919L82.943 56.1392C81.7771 57.3058 80.7959 58.6091 79.9777 59.9644C79.7792 60.3067 79.578 60.6457 79.4007 60.9946C79.2127 61.3383 79.0498 61.6915 78.8824 62.0402C78.5655 62.7451 78.2717 63.4515 78.0346 64.1666C77.541 65.5906 77.2185 67.0268 77.0197 68.4292C76.9914 68.604 76.9728 68.7795 76.9538 68.9541C76.9346 69.1286 76.9155 69.3024 76.8964 69.4753C76.8837 69.6489 76.8709 69.8218 76.8583 69.9938C76.8462 70.1658 76.8312 70.3368 76.8277 70.5078C76.8165 70.8494 76.7992 71.1872 76.8053 71.5225C76.806 71.69 76.8067 71.8566 76.8073 72.0223C76.8142 72.188 76.8209 72.3528 76.8275 72.5168C76.8528 73.1724 76.9179 73.812 76.9982 74.4331C77.0382 74.7438 77.0948 75.0486 77.1423 75.3499C77.1985 75.6478 77.2599 75.9385 77.3182 76.2263C77.5732 77.372 77.8962 78.4284 78.2515 79.3848C78.6082 80.3412 78.9972 81.1976 79.3814 81.954C80.0894 83.4418 81.1384 85.2547 82.5796 87.1459C83.0817 87.8066 83.6349 88.474 84.2337 89.1399C83.7981 89.2897 83.3757 89.4357 82.9613 89.5579C82.7041 89.6376 82.4526 89.7154 82.2072 89.7913C81.9618 89.8673 81.7182 89.9301 81.4832 89.9973C79.5995 90.5256 78.0903 90.8544 77.1108 91.0415C75.6863 91.3241 74.2515 91.5762 72.8158 91.832C72.4372 91.8967 72.0302 91.9725 71.5922 92.0423C71.1543 92.1119 70.6884 92.1861 70.1963 92.2645C69.2154 92.4135 68.1298 92.5603 66.955 92.6816C65.7802 92.8041 64.516 92.8964 63.1816 92.9296C62.5147 92.9449 61.8299 92.948 61.1319 92.9242C60.7821 92.9171 60.4305 92.8945 60.0742 92.8768C59.7195 92.8492 59.3595 92.8278 58.9995 92.7878C58.6378 92.7557 58.2763 92.7055 57.9102 92.6598C57.5468 92.6031 57.1787 92.5504 56.8126 92.4781C56.0793 92.3388 55.3393 92.172 54.6086 91.9496C53.1483 91.5073 51.6984 90.8982 50.3716 90.0448C49.0436 89.1964 47.8222 88.1347 46.8177 86.866C45.8067 85.6028 44.9952 84.1567 44.3894 82.6206C43.9477 81.4842 43.6189 80.3414 43.3966 79.2026C43.1723 78.0643 43.031 76.9355 42.9712 75.8168C42.8494 73.5792 42.9917 71.3908 43.3489 69.2144L43.4167 68.8061L43.4926 68.3984C43.5395 68.1268 43.6039 67.8524 43.6608 67.5782C43.7192 67.3039 43.7779 67.0288 43.8368 66.7528C43.9036 66.4777 43.9707 66.2016 44.0381 65.9243C44.1657 65.369 44.3249 64.8128 44.4735 64.2492C44.5458 63.9671 44.6337 63.6853 44.7143 63.4009C44.7975 63.1168 44.8773 62.8305 44.9642 62.543C45.6563 60.2416 46.4777 57.8329 47.3506 55.1698C47.7948 53.8136 48.2305 52.4521 48.6362 51.0858C49.0477 49.7219 49.4158 48.3456 49.7422 46.9701C50.4027 44.2192 50.8135 41.3947 50.7129 38.6083C50.661 37.2174 50.4756 35.8338 50.116 34.5047C49.7581 33.1774 49.2206 31.9056 48.5109 30.7665C47.8099 29.6183 46.9234 28.6219 45.9584 27.791C44.9895 26.961 43.9382 26.2965 42.8682 25.7765C42.7356 25.7083 42.6009 25.6474 42.4661 25.5883C42.3312 25.5292 42.1982 25.4656 42.0632 25.4101C41.7923 25.3019 41.5251 25.1892 41.254 25.0965C40.7157 24.8983 40.1752 24.741 39.6417 24.6001C38.5721 24.331 37.5226 24.1583 36.5103 24.0738C34.4849 23.9047 32.6169 24.0437 30.9829 24.3519C29.3529 24.681 27.9751 25.111 26.8282 25.5383C25.69 25.9792 24.7783 26.3828 24.112 26.7174C22.7556 27.3756 21.5949 28.0428 20.5974 28.6819C20.3451 28.8374 20.1064 28.9956 19.876 29.151C19.6456 29.3056 19.4213 29.4538 19.2084 29.6019C18.7859 29.9037 18.3879 30.1801 18.0302 30.4547C16.5892 31.5401 15.6325 32.3928 15.0071 33.0328C13.7585 34.3138 13.8364 34.751 14.3532 34.8201C15.174 34.931 17.0144 34.051 18.7538 32.851C20.4733 31.6738 22.1223 30.6219 23.7338 29.7574C25.3437 28.891 26.9089 28.1947 28.4252 27.6801C28.5197 27.6474 28.614 27.6147 28.7078 27.581C28.8027 27.5528 28.8972 27.5247 28.9913 27.4965C29.1797 27.4401 29.3668 27.3838 29.5524 27.3274C29.7373 27.2674 29.924 27.2238 30.1088 27.1783C30.2936 27.1319 30.4771 27.0865 30.6592 27.041C31.3819 26.8683 32.085 26.7556 32.7793 26.681C34.1653 26.5356 35.489 26.551 36.7147 26.6992C39.1714 26.9874 41.2333 27.7647 42.8078 28.7756C43.5997 29.2783 44.2672 29.8465 44.8347 30.4328C45.3957 31.0274 45.8519 31.6437 46.2116 32.2765C46.3015 32.4347 46.3902 32.5919 46.4779 32.7456C46.5532 32.9074 46.6276 33.0674 46.701 33.2247C46.7381 33.3028 46.7749 33.381 46.8115 33.4583C46.8422 33.5392 46.8727 33.6192 46.903 33.6992C46.9639 33.8583 47.0241 34.0156 47.0836 34.1701C47.1375 34.3283 47.1812 34.4883 47.2302 34.6447C47.2753 34.8019 47.3323 34.9528 47.3636 35.1119C47.4004 35.2692 47.4369 35.4238 47.473 35.5774C47.4901 35.6547 47.512 35.7292 47.525 35.8074C47.5382 35.8847 47.5513 35.9628 47.5644 36.0392C47.7854 37.2656 47.8407 38.4401 47.8143 39.5847C47.7859 40.7301 47.6742 41.8474 47.5052 42.991C47.4628 43.2774 47.421 43.5647 47.3665 43.8547C47.316 44.1456 47.2667 44.4383 47.2049 44.7347C47.1758 44.8828 47.1465 45.0319 47.1171 45.1828C47.0882 45.3328 47.0509 45.4865 47.0182 45.6392C46.9512 45.9474 46.8833 46.2592 46.8142 46.5774C46.7328 46.8856 46.6048 47.3719 46.4353 48.0147C46.3435 48.3365 46.2406 48.6974 46.1271 49.0947C46.0163 49.4919 45.8771 49.9265 45.7371 50.3957C45.4498 51.3337 45.1013 52.4103 44.7043 53.6093C44.3008 54.8161 43.8572 56.1427 43.3803 57.5694C42.9061 59.0088 42.4067 60.563 41.9294 62.2295C41.4541 63.896 40.9982 65.6754 40.6492 67.5631C40.2952 69.4688 40.0789 71.4733 40.0512 73.5375C40.0247 75.6009 40.187 77.7284 40.6218 79.8556C40.8394 80.9185 41.126 81.9804 41.4934 83.0262C41.8623 84.0714 42.3142 85.0998 42.8556 86.0891C43.3968 87.0783 44.0288 88.0278 44.7484 88.9097C45.4669 89.7913 46.2761 90.6064 47.1478 91.3261C48.0192 92.0475 48.9554 92.6794 49.9265 93.2166C50.898 93.7538 51.9036 94.1955 52.9162 94.5559C54.9441 95.2761 56.9918 95.6737 58.9592 95.8817C60.9291 96.0879 62.8248 96.1109 64.6162 96.0483C66.4073 95.9793 68.097 95.8273 69.6662 95.6371C70.0591 95.5916 70.4435 95.5397 70.8212 95.4906C71.1959 95.438 71.564 95.3864 71.9251 95.3358C72.2861 95.2871 72.6402 95.2308 72.9869 95.1775C73.3336 95.123 73.673 95.0741 74.0045 95.0182C74.6676 94.9031 75.3003 94.8048 75.8987 94.6875C76.1979 94.6314 76.4889 94.5768 76.7712 94.5238C77.0534 94.4712 77.3263 94.4105 77.5907 94.357C78.3643 94.1993 79.1347 94.0138 79.9055 93.8328L81.0583 93.5367C81.4432 93.4412 81.8253 93.3301 82.2078 93.2208C82.9745 93.0117 83.7335 92.7639 84.4943 92.5261C85.2491 92.2638 86.0073 92.0142 86.7536 91.7193C86.7673 91.7145 86.78 91.709 86.7936 91.7041C87.2 92.0708 87.6191 92.4329 88.0536 92.7878C88.5982 93.2407 89.1718 93.6738 89.7563 94.1047C90.3473 94.5275 90.9509 94.947 91.5782 95.3427C91.7327 95.4445 91.8909 95.541 92.05 95.6382C92.2091 95.7345 92.3663 95.8353 92.5273 95.9283C92.85 96.1128 93.1736 96.2981 93.4982 96.4838C93.8209 96.6747 94.1545 96.8445 94.4873 97.0181L94.9863 97.2788C95.1536 97.3658 95.3191 97.4545 95.49 97.5328C95.83 97.6944 96.17 97.8562 96.51 98.0181L96.7654 98.1391L97.0245 98.2515L97.5427 98.4761C98.23 98.7856 98.9345 99.0483 99.6309 99.3265C99.9809 99.4583 100.335 99.5801 100.685 99.7074C100.861 99.7701 101.036 99.8328 101.211 99.8956C101.387 99.9538 101.564 100.011 101.74 100.069C102.093 100.183 102.444 100.297 102.795 100.41C103.147 100.515 103.498 100.617 103.848 100.721C104.023 100.771 104.197 100.826 104.372 100.873C104.547 100.919 104.722 100.966 104.896 101.013C105.245 101.105 105.592 101.199 105.937 101.287C106.284 101.37 106.628 101.453 106.97 101.535C107.142 101.576 107.312 101.618 107.482 101.656C107.653 101.693 107.823 101.729 107.992 101.766C108.331 101.839 108.666 101.912 109 101.984C109.335 102.048 109.665 102.112 109.995 102.176C110.651 102.309 111.298 102.41 111.93 102.523C114.46 102.946 116.769 103.214 118.721 103.411C118.965 103.439 119.203 103.462 119.435 103.481C119.669 103.502 119.895 103.522 120.116 103.541C120.559 103.579 120.976 103.616 121.367 103.649C122.15 103.705 122.827 103.752 123.382 103.791C124.492 103.851 125.113 103.884 125.113 103.884C125.113 103.884 125.305 103.891 125.658 103.905C126.012 103.911 126.525 103.921 127.166 103.933C128.449 103.956 130.243 103.945 132.283 103.884C134.324 103.807 136.61 103.666 138.877 103.441C141.143 103.209 143.386 102.895 145.347 102.548C145.767 102.472 146.173 102.395 146.564 102.316L146.442 102.514C146.385 102.606 146.336 102.699 146.284 102.792L145.972 103.349L145.816 103.628C145.765 103.722 145.72 103.816 145.672 103.911C144.88 105.41 144.245 106.959 143.668 108.522C143.523 108.904 143.367 109.313 143.203 109.745C143.116 109.959 143.049 110.186 142.972 110.415C142.895 110.645 142.818 110.88 142.739 111.12C142.661 111.36 142.58 111.606 142.498 111.856C142.455 111.98 142.42 112.107 142.385 112.236C142.348 112.364 142.313 112.493 142.275 112.623C142.131 113.145 141.981 113.683 141.828 114.233C141.695 114.787 141.566 115.355 141.433 115.931C141.367 116.219 141.301 116.51 141.235 116.802C141.18 117.096 141.125 117.392 141.071 117.689C140.963 118.283 140.854 118.882 140.744 119.483C140.661 120.086 140.577 120.69 140.495 121.292C140.455 121.593 140.414 121.894 140.374 122.193L140.344 122.417L140.34 122.445L140.336 122.473C140.333 122.509 140.33 122.546 140.329 122.583C140.325 122.656 140.325 122.728 140.331 122.804C140.352 123.124 140.466 123.469 140.67 123.754C140.869 124.035 141.132 124.242 141.411 124.372C141.69 124.5 141.995 124.562 142.316 124.544C142.635 124.526 142.986 124.414 143.274 124.211C143.571 124.005 143.768 123.739 143.892 123.484L143.944 123.379L144.035 123.191C144.155 122.941 144.276 122.692 144.396 122.445C144.519 122.199 144.65 121.959 144.775 121.719C144.836 121.599 144.899 121.479 144.961 121.36C145.023 121.241 145.092 121.126 145.155 121.01C145.285 120.779 145.415 120.55 145.542 120.324C145.67 120.097 145.807 119.88 145.935 119.663C146.001 119.555 146.065 119.446 146.129 119.34C146.161 119.286 146.193 119.233 146.225 119.18C146.258 119.128 146.291 119.076 146.325 119.025C147.366 117.362 148.377 115.993 149.085 115.012C149.276 114.789 149.493 114.536 149.73 114.259C149.974 113.986 150.249 113.696 150.539 113.385C150.834 113.076 151.16 112.761 151.495 112.425C151.669 112.263 151.846 112.097 152.027 111.928C152.209 111.761 152.39 111.586 152.585 111.42C154.115 110.065 155.943 108.679 157.764 107.562C159.577 106.431 161.357 105.539 162.689 104.965C163.359 104.684 163.903 104.45 164.289 104.312C164.674 104.166 164.888 104.086 164.888 104.086C164.888 104.086 164.953 104.056 165.075 104.008C165.195 103.961 165.372 103.892 165.593 103.806C165.703 103.763 165.824 103.715 165.955 103.663C166.019 103.636 166.087 103.609 166.157 103.581C166.227 103.556 166.3 103.529 166.375 103.501C166.675 103.39 167.006 103.266 167.361 103.136C167.718 103.014 168.096 102.881 168.485 102.742C168.878 102.617 169.281 102.483 169.683 102.348C170.088 102.226 170.492 102.096 170.884 101.97C171.278 101.855 171.659 101.736 172.016 101.616C172.376 101.508 172.711 101.399 173.009 101.288C173.157 101.233 173.298 101.18 173.428 101.131C173.558 101.081 173.677 101.03 173.785 100.979C174.211 100.775 174.443 100.566 174.369 100.362C174.335 100.265 174.23 100.169 174.045 100.075Z" fill="#F47457"/>
</svg>
