<svg width="110" height="132" viewBox="0 0 110 132" fill="none" xmlns="http://www.w3.org/2000/svg">
<path d="M60.5294 5V88.1925C60.5294 92.5991 58.7755 96.8252 55.6536 99.9411C52.5317 103.057 48.2974 104.808 43.8824 104.808C39.4673 104.808 35.233 103.057 32.1111 99.9411C28.9892 96.8252 27.2353 92.5991 27.2353 88.1925C27.2353 83.7805 28.9873 79.5484 32.1075 76.4231C35.2278 73.2979 39.4619 71.5343 43.8824 71.5188V49.385C33.5701 49.385 23.6802 53.4736 16.3884 60.7514C9.09652 68.0293 5 77.9001 5 88.1925C5 98.4849 9.09652 108.356 16.3884 115.634C23.6802 122.911 33.5701 127 43.8824 127C54.1946 127 64.0845 122.911 71.3763 115.634C78.6682 108.356 82.7647 98.4849 82.7647 88.1925V49.385L83.9412 49.9721C90.4877 53.2096 97.6939 54.8972 105 54.9038V32.7113H104.353C98.1845 31.1775 92.7078 27.6275 88.7954 22.6267C84.883 17.6259 82.76 11.4621 82.7647 5.11742H60.5294V5Z" stroke="#666666" stroke-width="10" stroke-miterlimit="10"/>
</svg>
