<svg width="70" height="68" viewBox="0 0 70 68" fill="none" xmlns="http://www.w3.org/2000/svg">
<path d="M67.4012 26.3883C66.8325 25.4945 66.3575 24.5444 65.9836 23.5532C65.6575 22.5347 65.4535 21.481 65.3761 20.4143C65.3317 17.8331 64.5849 15.3128 63.216 13.1241C61.542 11.1393 59.3606 9.64621 56.9045 8.80392C55.9022 8.41709 54.9411 7.9309 54.0357 7.35262C53.2502 6.6765 52.5272 5.93096 51.8756 5.12504C50.325 3.01985 48.2225 1.38452 45.8004 0.399868C43.348 -0.179623 40.7857 -0.0980973 38.3751 0.636126C36.2219 1.14215 33.9806 1.14215 31.8274 0.636126C29.3746 -0.122583 26.7624 -0.204215 24.2671 0.399868C21.8204 1.37377 19.6933 3.00998 18.1244 5.12504C17.4514 5.93396 16.7057 6.6796 15.8968 7.35262C14.9914 7.9309 14.0303 8.41709 13.028 8.80392C10.5597 9.64078 8.36606 11.1343 6.68274 13.1241C5.3494 15.3231 4.63783 17.8427 4.62391 20.4143C4.54645 21.481 4.34251 22.5347 4.01639 23.5532C3.63831 24.5211 3.16338 25.4484 2.59884 26.3208C1.0771 28.4901 0.178328 31.0347 0 33.6786C0.190395 36.2991 1.08862 38.8188 2.59884 40.9688C3.17638 41.8337 3.65205 42.7624 4.01639 43.7364C4.31005 44.7817 4.47997 45.8579 4.52266 46.9428C4.56365 49.5245 5.31068 52.0457 6.68274 54.233C8.35679 56.2178 10.5382 57.7109 12.9942 58.5532C13.9965 58.94 14.9576 59.4262 15.8631 60.0045C16.672 60.6775 17.4176 61.4231 18.0906 62.2321C19.6308 64.3473 21.7366 65.9851 24.1659 66.9573C25.1178 67.247 26.1072 67.3948 27.1022 67.396C28.6265 67.3475 30.1418 67.1439 31.6249 66.7885C33.7744 66.2512 36.0231 66.2512 38.1726 66.7885C40.6313 67.5182 43.2387 67.5881 45.7329 66.991C48.1622 66.0189 50.2679 64.3811 51.8081 62.2658C52.4811 61.4569 53.2267 60.7113 54.0357 60.0382C54.9411 59.46 55.9022 58.9738 56.9045 58.5869C59.3606 57.7447 61.542 56.2515 63.216 54.2668C64.5881 52.0795 65.3351 49.5582 65.3761 46.9765C65.4188 45.8916 65.5887 44.8155 65.8823 43.7702C66.2604 42.8022 66.7354 41.875 67.2999 41.0026C68.8519 38.8536 69.7857 36.3207 70 33.6786C69.8096 31.058 68.9114 28.5383 67.4012 26.3883ZM50.8968 29.3246L34.0212 46.2003C33.7075 46.5166 33.3342 46.7677 32.9229 46.939C32.5116 47.1104 32.0704 47.1986 31.6249 47.1986C31.1793 47.1986 30.7382 47.1104 30.3269 46.939C29.9156 46.7677 29.5423 46.5166 29.2285 46.2003L19.1032 36.0749C18.7885 35.7602 18.5389 35.3866 18.3686 34.9754C18.1982 34.5643 18.1106 34.1236 18.1106 33.6786C18.1106 32.7798 18.4676 31.9178 19.1032 31.2822C19.7387 30.6467 20.6007 30.2896 21.4995 30.2896C22.3983 30.2896 23.2603 30.6467 23.8959 31.2822L31.6249 39.045L46.1041 24.532C46.7397 23.8964 47.6017 23.5394 48.5005 23.5394C49.3993 23.5394 50.2613 23.8964 50.8968 24.532C51.5324 25.1675 51.8894 26.0295 51.8894 26.9283C51.8894 27.8271 51.5324 28.6891 50.8968 29.3246Z" fill="white"/>
</svg>
