<svg width="102" height="102" viewBox="0 0 102 102" fill="none" xmlns="http://www.w3.org/2000/svg">
<circle cx="51" cy="51" r="51" fill="#74B3C2"/>
<path d="M25.7561 31.9091L33.9241 45.4922H34.2139L42.4181 31.9091H50.0789L38.651 50.4545L50.26 69H42.4724L34.2139 55.5075H33.9241L25.6656 69H17.9142L29.6318 50.4545L18.059 31.9091H25.7561ZM55.3537 69V31.9091H69.2628C72.1122 31.9091 74.5028 32.4403 76.4347 33.5028C78.3786 34.5653 79.8455 36.0263 80.8356 37.8857C81.8377 39.733 82.3388 41.8338 82.3388 44.1882C82.3388 46.5668 81.8377 48.6797 80.8356 50.527C79.8335 52.3743 78.3544 53.8292 76.3984 54.8917C74.4425 55.9421 72.0337 56.4673 69.1722 56.4673H59.9538V50.9435H68.2667C69.9329 50.9435 71.2972 50.6538 72.3597 50.0742C73.4222 49.4947 74.207 48.6978 74.7141 47.6836C75.2333 46.6694 75.4929 45.5043 75.4929 44.1882C75.4929 42.8722 75.2333 41.7131 74.7141 40.7109C74.207 39.7088 73.4162 38.93 72.3416 38.3746C71.2791 37.8072 69.9087 37.5234 68.2305 37.5234H62.0728V69H55.3537Z" fill="white"/>
</svg>
