<svg width="123" height="123" viewBox="0 0 123 123" fill="none" xmlns="http://www.w3.org/2000/svg">
<path fill-rule="evenodd" clip-rule="evenodd" d="M89.3874 96.5306C100.725 96.9433 110.258 88.1036 110.701 76.7669V47.4143C110.258 36.0779 100.725 27.2379 89.3874 27.6506H33.6142C22.2767 27.2379 12.7435 36.0779 12.3008 47.4143V76.7669C12.7435 88.1036 22.2767 96.9433 33.6142 96.5306H89.3874Z" stroke="#666666" stroke-width="10" stroke-linecap="round" stroke-linejoin="round"/>
<path fill-rule="evenodd" clip-rule="evenodd" d="M59.0795 48.1938L74.6316 58.7618C75.6392 59.3502 76.2587 60.4291 76.2587 61.5957C76.2587 62.7627 75.6392 63.8417 74.6316 64.4296L59.0795 75.9916C56.1275 77.994 51.6602 76.2868 51.6602 73.1577V51.0179C51.6602 47.9035 56.1324 46.1914 59.0795 48.1938Z" stroke="#666666" stroke-width="10" stroke-linecap="round" stroke-linejoin="round"/>
</svg>
